<?xml version="1.0" encoding="UTF-8"?>
<svg enable-background="new 0 0 1163.477 1678.199" version="1.1" viewBox="0 0 1163.477 1678.199" xmlns="http://www.w3.org/2000/svg">
 <path d="m493.53 84.641c1.251-0.104 2.539 0.227 3.424-0.919-2.719-0.17-5.47-0.411-8.935-0.885 1.857 1.969 4.393 2.999 6.956 3.919-0.495-0.719-1.011-1.493-1.445-2.115z"/>
 <path d="m396.99 125.66c-28.737-12.301-74.672-37.509-74.672-37.509l-0.028 0.06c8.273 4.746 64.043 34.609 74.678 37.511l0.022-0.062z"/>
 <path d="m733.02 108.35c-0.611-1-9.366-6.962-12.091-7.363 1.039 1.127 13.366 10.934 12.091 7.363z"/>
 <path d="m173.37 542.12c0.026 0.018 0.059 0.032 0.085 0.05 0.338-0.018 0.687-0.036 1.037-0.055-0.393-5e-3 -0.768-4e-3 -1.122 5e-3z"/>
 <path d="m1136.1 534.45c-4.647-2.987-25.468-5.381-36.496-7.008-7.69-5.601-6.154-3.818-10.727-6.155l2e-3 5e-3c-3.692-1.845-6.31-2.839-7.37-3.266-18.138-7.717-28.736 0.37-41.331 1.587-5.047 0-9.372 0.288-13.052 1.957-46.536-0.496-37.356 9.89-64.972 16.788-135.64 36.717-75.989-3.186-148.04 54.136-73.339-57.877-123.24-67.023-112.63-214.22 17.89 3.125 26.372 31.557 67.77 24.949 1 0.382 31.443 12.226 39.185 15.321 5.632 35.283 43.648 24.04 48.844 20.821 0.018 0.011 1.501 0.89 1.52 0.901 25.24-7.211 21.898-22.304 27.711-31.875 3.729-6.144 1.353-4.201 2.112-8.901 0.553-1.027 1.266-1.979 1.955-2.9 6.085-8.122 7.474-23.709-5.039-32.604-5.798-4.117-10.072-14.323-16.639-20.875-28.192-28.159-56.031-80.313-65.151-91.705 2.878 0.127 4.459 3.349 7.635 3.191-1.847-2.082-4.844-3.476-4.427-6.57 4.282 2.788 9.025 4.971 12.676 8.548 0.167 2.04 0.964 4.051 2.608 5.952-0.072-1.046-0.264-3.361-0.348-4.363 2.437 1.599 16.063 12.749 16.069 12.752l0.041-0.05c-1.577-1.984-3.439-3.763-4.982-5.762 8.835 4.215 17.931 13.917 22.84 15.842-2.018-2.994-13.549-12.971-14.771-13.875 0.124-0.181 0.491-0.716 0.604-0.878 1.075 0.805 2.101 1.607 2.965 2.288 0.012 9e-3 0.063 0.05 0.076 0.06v-2e-3c3.293 2.451 6.086 5 9.697 6.858-2.229-3.843-6.431-5.215-8.744-8.695 0.395 0.197 5.99 3.463 16.762 10.888l1e-3 3e-3c0.015 8e-3 0.072 0.048 0.086 0.057l-3e-3 -9e-3c12.69 6.999 21.719 13.983 21.719 13.983-2.787-4.085-4.914-5.401-16.368-15.637 1.017 0.321 12.931 4.393 18.532 8.457 7e-3 -0.148 0.052-1.294 0.058-1.46 3.244 0.98 6.652 2.385 9.554 3.3-0.087-0.243-0.457-1.308-0.522-1.511-2.809-1.03-5.695-2.553-7.88-4.669 4.846 0.667 9.402 2.638 14.052 4.004 1.915 0.799 3.846-0.509 5.764-0.062 4.519 0.952 8.713 2.627 13.456 2.092-5.955-2.638-12.209-3.057-18.064-5.423 4.427-1.663 8.684 1.986 13.28 0.682-2.907-1.811-4.638-1.315-19.488-5.088-3.001-0.726-5.67-2.451-8.378-3.774 0.31-0.085 1.513-0.411 1.945-0.529-0.67-0.358-1.426-0.765-2.091-1.133 5.94-0.261 18.692 4.524 24.839 3.969l8e-3 -0.064c-5.91-1.977-12.18-3.104-18.229-4.363 0.94-0.191 1.922-0.395 2.876-0.598-2.678-1.922-5.134-1.632-11.846-3.31-6.807-1.699-13.326-0.915-26.639-9.641 12.446 2.095 31.654 10.869 50.213 9.491l2e-3 -0.066c-21.754-3.237-21.86-1.619-75.518-21.431 6.089-0.111 19.187 5.169 23.635 7.011l-7e-3 2e-3c4.857 1.849 10.322 3.601 15.501 4.803-0.67-0.618-1.512-1.394-2.179-2.014 4.311-0.094 8.443 2.119 12.875 2.179-2.172-2.611-5.745-2.238-8.65-3.381l20.355 0.918c-6.044-3.271-30.189-5.533-34.708-6.907 7.258-2.069 27.899-0.556 30.641-0.86-4.57-2.308-9.564-1.329-14.333-2.386 18.802-1.547 43.898 2.013 59.055 14.299-0.219-1.681-1.426-2.593-2.805-3.614-26.532-19.646-63.921-6.302-92.387-17.895 2.157-0.086 4.356 0.201 6.534 0.459l0.023-0.06c-1.118-0.796-2.393-1.342-3.61-1.811 2.995-1.172 6.384-0.519 9.419-1.718 0.132 0.034 0.409 0.106 0.539 0.145 3.533 2.294 7.125 4.172 10.675 5.581l0.037-0.053c-2.2-2.36-5.375-3.461-7.937-5.313 5.94-0.882 12.121 0.925 17.918-0.283l-0.042-0.043c-5.11-5.323-7.652 4.465-36.734-7.756 5.672-1.172 11.294 1.666 16.989 0.917l6e-3 -0.064c-15.705-4.941-17.407-1.197-31.116-5.752 7.657-1.65 59.52-3.55 64.014-4.768-5.382-2.868-66.355 1.808-67.355 1.829 5.769-2.779 36.148-3.891 40.032-6.01-7.963-0.223-40.144 4.074-42.956 3.488 20.783-7.498 16.477-3.826 46.062-18.287l-0.028-0.06c-10.992 4.823-37.77 16.573-52.22 19.201 0.54-0.636 1.053-1.279 1.548-1.926 11.096-3.623 34.627-10.599 50.824-21.535l-0.035-0.056c-15.1 8.874-36.568 16.704-49.492 19.814 0.491-0.71 0.953-1.422 1.381-2.134 3.759-0.846 7.286-1.603 8.701-2.583l-0.028-0.059c-0.402 0.124-3.941 1.067-8.341 2.072 1.104-1.913 1.962-3.815 2.529-5.656 3.916-1.403 7.086-2.872 14.905-5.637l-0.015-0.064s-6.293 2.227-14.604 4.692c0.087-0.344 0.173-0.689 0.238-1.028 0.136-0.717 0.536-0.782 1.134-0.788 16.272-0.169 36.906-17.384 42.472-29.796 0.36-0.804 0.9-1.208 1.797-1.358 14.767-2.471 33.865-16.781 42.226-28.386 0.444-0.617 0.916-1.17 1.681-1.411 13.807-4.343 30.024-15.445 40.457-25.196 6.483-6.059 4.919-2.397 21.094-12.097 11.071-6.639 27.76-18.601 27.76-18.601 4.454-2.366 33.259-18.298 35.322-21.34-3.724 1.142-40.403 16.595-46.885 19.742-17.639 8.563-13.231 7.579-17.697 8.892-9.536 2.802-19.213 5.937-28.274 10.188-17.608 8.261-15.419 9.771-21.543 10.753-15.35 2.463-29.826 7.33-42.477 16.675-7.464 5.514-4.981-0.406-24.764 5.397-10.23 3.001-19.839 7.249-27.69 14.749-0.456 0.436-0.915 0.664-1.57 0.57-5.436-0.778-11.803-0.542-18.322 0.729-1.092-1.943-2.43-4.003-4.067-6.185l-0.055 0.038c1.285 2.071 2.492 4.162 3.567 6.269-2.441 0.497-4.896 1.148-7.333 1.936 2.856-10.174 4.161-19.121 3.559-23.121l-0.066 0.01c0.372 5.736-1.582 14.62-4.241 23.359-4.696 1.58-9.297 3.686-13.502 6.365-0.387-5.92-1.613-12.816-4.537-20.532l-0.063 0.018c1.875 9.514 3.359 15.809 3.411 21.326-0.495 0.334-0.995 0.66-1.477 1.01 0.048-2.02-0.089-4.065-0.263-6.138l-0.065-3e-3c-0.077 0.412-0.352 3.492-0.938 7.118-1.445 1.12-2.842 2.295-4.14 3.566-0.293 0.287-0.585 0.49-0.911 0.603 0.079-3.628 0.051-7.281-0.545-10.859v-1e-3c-3e-3 -0.014-0.018-0.107-0.021-0.122l-3e-3 8e-3c-0.297-1.684-0.849-3.31-1.341-4.748 0-1.001 1.441-17.861 2.738-19.453-1.376-4.678-0.031-9.516-0.916-14.235l-0.065 6e-3c-0.021 3.313 0.111 6.648 0.058 10.01-0.53-0.312-1.513-0.881-2.008-1.166l-0.036 0.055c0.761 0.575 1.397 1.046 1.999 1.481-0.223 6.313-0.695 13.711-2.498 20.768-1.003-1.029-1.593-2.344-2.164-3.616l-0.063 0.022c0.672 2.588 1.823 5.144 1.584 7.86 0 0-2.895-7.171-9.951-17.613-1.457-4.304-5.04-7.379-7.123-11.327 5.64 4.744 14.203 19.26 15.073 20.28l0.058-0.029c-2.802-11.854-23.67-31.342-31.285-34.224 3.698 4.828 11.46 7.482 16.605 18.193-2.634-2.793-5.539-4.76-8.915-7.76-7.775-7.32-44.262-27.6-55.515-29.312-1.684-1.587-3.534-3.061-5.074-4.817 2.692-2.271 5.976 0.308 9.2 0.1-1.521-1.125-3.203-1.55-5.185-2.035-8.238-2.016-25.871-28.983-53.101-44.714l-0.045 0.047s32.023 25.756 40.248 36.057c-1.483-0.909-3.17-1.892-4.737-2.957-6.071-5.393-11.441-11.788-18.205-16.471-9e-3 0.586-0.028 1.082-0.035 1.527-0.514 0.128-1.205 0.296-1.719 0.426 7.778 6.746 10.858 5.681 24.479 22.619-0.282 0.392-0.643 0.896-0.913 1.301 2.96 1.11 5.388 2.87 7.07 5.612-0.491 0.022-1.383 0.061-1.851 0.082-12.954-10.464-2.929-7.984-66.505-48.854h-2.729l-1e-3 4e-3 -16.242-4e-3 -1e-3 3e-3 -5.192-3e-3 -0.016 0.063s4.274 1.257 17.338 8.24c4.064 4.469 10.142 6.526 14.364 10.788-2.948-0.618-5.518-2.126-8.527-3.013 0.619 0.717 1.39 1.569 2.023 2.269-5.302-0.958-9.699-4.692-15.202-4.983 0.425 0.454 39.247 18.891 40.303 18.808 3.13 1.448 15.051 8.659 16.804 10.458-15.971-0.664-21.994-5.648-25.587-7.759-38.276-22.492-58.186-26.125-71.7-34.869h-2.009l-0.012 0.064c1.815 0.712 3.423 1.717 4.782 2.988-3.237-0.468-6.236-1.939-9.23-3.05l-5.508-2e-3 -9e-3 0.065c38.353 10.875 74.715 44.535 76.446 46.649-3.111-2.006-6.147-4.422-9.857-5.36-13.005-7.72-33-15.887-69.147-19.198l-0.016 0.064c5.609 2.345 11.824 2.594 17.733 3.174 23.378 3.922 40.838 12.647 44.29 14.137-4.554 1.335-5.949-3.647-16.483-2.385 0 0 12.306 4.648 20.899 9.863-3.432-0.963-6.291-3.058-9.648-4.03v-1e-3c-2.687-0.84-62.18-24.541-115.19-20.885l-0.543 0.634c2.201 1.289 42.595-1.281 57.519 7.401-3.265-0.251-4.91-0.293-6.438-0.293l-0.011 0.064c1.002 0.368 46.462 11.789 66.572 22.857-3.226 0.267-6.594-0.335-9.756-1.251 9e-3 0.07 0.191 1.222 0.207 1.327-2.478 0.01-5.004 0.051-7.433-0.45-52.396-27.056-77.717-22.068-83.407-22.943-4.278 2.723-9.256 1.142-13.551 3.304l0.017 0.063c35.635-2.112 49.918-2.062 95.413 20.74-0.325 0.072-1.093 0.235-1.389 0.302-8.941-4.536-19.403-9.573-30.448-11.966l-0.024 0.061c1 0.612 33.752 12.761 42.076 20.262-2.136-0.543-53.897-27.934-73.921-28.011 3.58 2.046 3.436 1.49 21.896 6.418-0.697 0.064-1.413 0.13-2.106 0.188-8.515-1.606-17.189-3.519-25.854-4.81-9.295-1.741-17.482-2.234-25.03-1.506-1e-3 0-0.119 0.012-0.12 0.012l7e-3 4e-3c-8.129 0.962-22.635 6.983-22.844 7.001-16.195-5.958-53.588-27.201-53.785-27.283l-0.035 0.055c2.726 2.489 24.959 15.381 49.345 26.521-0.926 0.774-1.794 1.512-2.697 2.306 2.305-0.14 4.423-2.373 6.352-0.733-3.58 2.771-8.445 3.866-11.388 7.474-1.516 1.081-3.052 2.113-4.604 3.208-7.354 1.785-22.434-13.222-35.515-20.515l-0.042 0.049c2.821 3.652 28.668 20.531 30.658 22.609-2.696 2.989-13.146 10.866-14.845 13.418l-6e-3 -3e-3c-0.016 0.035-9e-3 0.022-0.033 0.058l3e-3 1e-3c-0.909 1.942-2.486 3.38-4.447 4.053-7.088-3.068-17.979-2.226-22.5-6.811 1.575 0.035 3.172 0.068 4.745-0.043 0 0-21.779-3.009-59.335-33.331-1.855-1.201-3.38-3.17-5.643-3.592-0.95 3.007 39.006 28.334 42.871 30.234-10.52-2.157-54.886-16.835-55.161-16.844 5.852 6.577 64.052 19.429 70.86 24.723-5.934-0.735-28.328-7.956-32.706-8.445 3.486 4.082 42.729 11.933 52.642 16.659-16.931 0.531-37.755-8.448-42.696-8.963l-0.022 0.06c8.944 6.202 32.567 10.077 43.532 11.141-13.99 14.489-6.03 14.86-28.968 9.922-34.694-7.467-49.509-19.682-60.174-23.764l-0.03 0.059c28.139 18.235 55.339 24.949 77.063 27.764-1.098 1.766-1.914 4.037-3.773 5.041-5.506-0.676-26.675-9.703-49.367-7.707l-9e-3 0.064s30.181 0.844 48.983 8.613c-0.476 0.939-0.968 1.909-1.446 2.87-2.017-1.072-3.884-2.342-5.689-3.571l-0.042 0.051c1.646 1.66 3.555 3.067 5.168 4.771-0.434 0.208-0.835 0.398-1.476 0.707-3.685-2.178-7.746-4.804-11-7.675-0.141 0.308-0.848 1.853-0.993 2.178 3.989 1.572 7.093 4.809 10.144 7.618-3.026 0.129-5.742-1.204-8.896-0.731 2.658 1.448 5.498 1.973 8.526 2.607-0.697 1.506-1.307 2.893-1.865 4.239-3.852-0.97-7.121-3.373-10.747-4.923-1.499-2.097-13.124-9.635-15.992-10.322 2.94 2.89 6.354 4.508 9.441 7.022l-0.92 0.56c-13.837-6.076-43.293-24.972-54.781-33.604l-0.043 0.05c13.887 13.24 70.457 42.285 70.457 42.285-7.763 1.45-12.106-6.186-19.963-8.606 3.55 4.753 9.743 5.704 13.45 10.077-0.443 0.122-1.301 0.355-1.762 0.475-4.969-4.174-25.749-9.101-53.418-36.401-0.046 0.125-0.436 1.142-0.491 1.287-7.503-5.161-14.119-11.375-22.001-16.214 1.715 4.394 23.594 28.124 31.293 31.754l0.038-0.053c-0.96-1.001-24.522-21.558-27.107-27.573 1e-3 0 46.911 35.46 46.913 35.461-16.023-5.111-12.482-6.701-19.757-10.755l-0.042 0.05c1.517 1.867 3.39 3.475 5.059 5.037-7.012-1.528-14.021-4.053-21.29-4.13l-7e-3 0.066c17.418 3.312 26.982 7.555 37.69 16.815-23.77 0.571-83.354-14.018-87.421-8.168 25.861 0.404 58.226 6.731 60.942 7.642-1.001 0.139-60.226-7.61-67.98-0.391 9.736-0.84 19.272-1.565 29.283-1.709-3.681 1.723-31.709 4.326-37.071 10.731 13.908-4.14 36.761-15.016 78.119-5.645 0.128 0.303 0.378 0.875 0.512 1.182-0.523-0.12-1.446-0.34-1.912-0.452-1-0.059-34.524-3.712-37.866-1.602 21.985 1.859 21.851 2.159 21.851 2.159-0.117 0.333-0.262 0.735-0.382 1.084-8.99 1.008-25.147 8.793-27.636 12.213-3.772 1.639-7.107 4.195-10.388 6.667-3.256 1.272-5.696 4.672-9.339 4.672-4.004 0.162-8.026 0.699-11.953 1.598l4e-3 0.065c4.108 0.337 8.237-0.668 12.269-0.566-1.829 2.598-4.409 4.572-6.773 6.545-3.111 1.326 0.358 0.074-5.558 1.544l2e-3 0.065c0.96 0.16 1.981 0.331 3.002 0.506-8.103 9.807-18.412 21.606-20.107 24.997-9.795 11.122-1.961 9.997-13.593 16.405 0.241 0.044 1.449 0.258 1.69 0.3-12.836 2.968-55.823 19.965-62.157 26.501l0.04 0.052c11.654-6.432 24.315-11.215 36.483-16.455 0.394 0.142 1.243 0.446 1.622 0.583-21.66 10.367-48.197 40.424-50.042 47.483 1.073-0.594 15.39-23.756 57.862-45.643 2.226-1.147 4.527-2.333 6.454-4.038l0.088-0.078c-10.944 1.931-41.627 25.321-42.627 25.983 7.091-12.055 45.13-30.598 52.056-32.233 12.692 2.7-45.796 21.869-59.157 44.247l0.052 0.041c17.94-17.874 54.208-37.609 59.639-39.588 0 1e-3 -2.465 14.74-2.465 14.741 0 0-19.455 8.549-23.239 10.708l0.022 0.062s32.212-12.373 38.054-13.922c-11.341 9.169-26.816 18.579-31.762 24.465l0.043 0.049c23.26-15.231 37.34-30.605 65.845-35.347-1.004 0.728-20.825 15.531-21.909 16.958l0.046 0.046c5.644-4.255 11.211-8.188 17.85-10.535l-7e-3 -2e-3c1.23-0.418 2.402-0.966 3.484-1.632v4e-3c4.104-2.509 4.674-2.588 8.677-3.95-0.158 0.372-0.346 0.823-0.523 1.24-0.446 0.13-11.187 6.569-11.412 6.714l1e-3 -3e-3c-0.02 0.013-0.057 0.038-0.075 0.049-7.559 5.004-15.296 10.555-22.995 16.5-13.41 3.487-50.739 37.987-51.741 38.822-5.227 4.357-6.389 6.773-9.883 7.084-16.353 2.033-25.432-0.187-31.876 0.317l-7e-3 0.065c9.82 2.903 20.324 1.237 30.368 1.848-4.526 4.307-9.33 8.632-13.28 13.559l0.044 0.048c5.967-3.843 9.894-10.436 16.27-13.74-1.718 3.092-4.527 5.245-5.762 8.75 4.211-2.824 5.568-8.611 10.519-9.996-0.454 1.311-0.86 2.439-1.266 3.563 4.899-4.249 2.191-3.281 13.46-4.927-3.932 7.704-7.682 8.977-8.64 13.487 3.89-4.283 7.301-8.792 10.775-13.481 23.858-10.754 26.457-12.28 26.72-12.496-2.353 3.566-5.707 6.291-7.204 10.495 10.659-8.226 0.282-6.862 23.621-19.735-1.334 1.994-3.054 3.602-4.468 5.646 0 0 18.056-17.204 25.951-22.702 7.63-2.51 13.861-8.267 21.612-10.564-3.568 2.863-7.554 4.827-10.347 8.467 5.194-1.419 8.046-6.25 12.96-7.925-3.605 3.72-7.322 7.722-11.933 10.313 0.837 0.262 1.07 0.347 1.757 0.565-0.03 0.319-0.089 0.882-0.123 1.173-5.758 3.767-10.662 8.767-15.69 13.333l0.037 0.054c3.078-1.469 5.526-3.903 8.327-5.902-0.805 2.918-6.132 7.306-10.361 6.933-2.363 2.671-5.529 4.184-8.103 6.827 3.942-0.744 6.252-4.049 9.852-5.22-4.488 6.729-9.803 9.096-16.511 14.31-6.893 5.36-29.574 26.059-29.574 26.059l1e-3 1e-3c-9.78 6.576-19.64 19.636-20.357 21.428 3.023-1.859 11.353-12.952 18.344-17.731-0.791 1-17.497 21.568-18.441 27.74 1-0.793 32.981-40.583 42.65-44.859-1.57 2.375-3.504 4.566-4.793 7.137-13.314 25.586-9.017 12.464-18.489 28.866l0.048 0.043c1.001-0.728 22.753-27.58 27.662-30.681-0.156 0.43-11.335 20.327-11.531 20.913 2.068-1.484 12.946-19.962 14.85-22.965l2e-3 1e-3c0.018-0.033 9e-3 -0.018 0.034-0.058h-1e-3c3.172-5.712 13.409-12.523 15.583-13.756 0 0-30.597 37.115-40.898 60.734l0.057 0.032c4.037-5.659 23.723-36.26 34.303-45.232 0.034 0.441 0.11 1.223 0.128 1.407-4.715 5.723-22.564 30.767-36.72 61.56-4.718-1.951-24.509-9.595-29.584-9.804l-0.01 0.065c15.46 4.177 20.552 7.754 29.195 10.39-2.97 9.418-18.258 19.205-20.016 18.604-16.822-3.757-48.639-11.224-82.799 0.086l6e-3 0.064c2.758 0.327 15.503-8.033 53.802 22.729-1.343-0.198-2.77-0.385-4.123-0.506 1.209 1.277 2.658 1.751 4.351 2.289 6.226 1.978 11.021 8.165 18.52 9.571h1e-3c2.087 0.287 4.208 0.621 6.108 0.922-2.751 0.586-5.552 0.35-8.302 0.558 3.482 2.531 4.552 0.479 11.325 2.298 2.105 0.669 4.244 1.447 6.508 1.188 9.952 0.144 19.962-1.7 29.658-4.434 0.318 0.266 0.527 0.444 0.838 0.704-29.276 13.199-85.719-4.182-113.05-21.001 1.981 4.646 38.78 20.275 55.197 23.051-0.249 0.221-0.749 0.656-0.99 0.87-16.434-1.909-33.218-4.566-51.31-8.123l-0.014 0.065c22.9 5.608 47.571 9.033 70.461 11.085 4.535 1.706 9.457 0.415 14.153 0.756 1.831 3.432 6.338 3.974 8.143 7.405-15.27-4.267-12.505-4.795-18.82-5.464 1.8 2.487 13.689 5.165 18.428 7.424 0.095 2.264-0.39 4.543-0.696 6.754-2.333-0.159-21.514-3.145-27.665-0.544-21.063-8.445-36.773-16.71-93.875-29.586 1.158 1.317 2.619 1.765 4.357 2.278 21.985 6.498 66.466 15.194 105.64 37.6-3.691 3.241-16.373 8.099-17.385 8.652-5.106 0.157-44.789-6.019-51.612-7.424-25.258-5.202-24.065-13.63-32.912-18.084l-0.04 0.052c4.774 5.405 10.864 9.566 16.362 14.131-2.062-0.375-3.946-1.036-5.87-1.875 0.232 0.491 0.159 0.341 0.65 1.37 16.447 6.853 12.345 8.161 23.89 13.73l-6e-3 2e-3c0.014 6e-3 0.076 0.034 0.089 0.04h1e-3c5.905 2.623 12.439 3.462 18.609 4.988-4.588 1.139-8.957-1.469-13.728-0.438 18.172 6.296 30.42 6.034 48.931 1.087 0.419 0.175 1.068 0.441 1.542 0.64-12.682 6.492-3.668 7.016-40.699 3.32-13.267-6.753-14.435 0.234-49.81-15.773-32.132-15.019-41.812-21.775-41.812-21.775l-0.039 0.052c4.82 5.737 46.436 27.62 70.187 33.461-1 0.166-1.918 0.329-3.001 0.488-18.626-3.812-26.564-4.895-58.555-13.429l-0.019 0.063c26.701 8.788 68.207 18.487 106.59 20.594-0.045 0.209-0.301 1.44-0.323 1.535 0.905 0.425 1.817 0.853 2.704 1.305-3.621 1.33-7.2-2.108-11.043-1.126 4.395 3.306 10.547 1.262 14.7 4.746 3.864 3.227 6.832 5.496 10.188 7.929 3.534 2.657 7.706 4.452 11.041 7.352-5.931-1.797-28.295-16.29-29.904-17.073l-0.037 0.055c10.01 8.953 26.602 16.55 29.774 18.759-14.524 1.714-8.7 1.458-21.713-1.567-19.519-4.547-18.848-1.831-42.779-6.497l-0.023 0.062c1.949 1.123 4.022 2.05 6.009 3.107-9.736 0.994-19.915 1.566-29.297 4.844l0.013 0.064c6.788-0.429 16.859-3.724 31.281-3.724 7.595 0 9.184 6.335 28.96 6.621 6.512 0.676 5.688 1.176 10.902 2.172l-2e-3 1e-3c6.444 1.303 11.96 2.901 18.674 4.804-0.042 0.117-0.223 0.639-0.258 0.736-5.196 1.667-10.549 3.436-15.914 4.855l0.012 0.065c3.244-0.393 16.409-4.306 17.538-4.958 1.456 0.195 3.07 0.263 4.158 1.405-6.793 2.079-13.166 5.452-19.93 7.608-6.316 2.091-12.387 5.135-18.777 6.992-3.214 0.156-6.077 0.304-8.647 0.44 11.804 0.142 40.515 6.139 51.685 9.084-0.18 0.489-0.65 1.763-0.72 1.954-3.349-0.435-4.535-0.619-6.938-1.306h-1e-3c-23.057-6.307-38.541-5.293-45.063-9.677-27.458 1.458-19.196 1.25-36.321-8.411l-0.039 0.053c3.962 3.638 8.967 5.968 13.593 8.461 0.06 0.363 0.143 0.934 0.204 1.299-31.061 3.852-9.668 6.547-32.704-1.959l-0.029 0.06c3.752 2.329 20.614 10.033 25.965 11.434v1e-3c31.8 9.764 40.382 10.051 48.994 12.249-1.795 1.335-3.805 2.389-5.791 3.467l0.026 0.061c3.013-1.011 5.707-3.906 9.104-2.973 11.783 2.158 24.037 4.837 36.31 5.413l-4e-3 2e-3c4.909 0.183 9.536 0.658 14.319 0.844 1.272 1.639 2.731 3.133 4.082 4.681-3.106 0.276-6.046-0.488-8.512-2.219l-0.047 0.045c0.338 0.549 0.791 1.284 1.125 1.832-18.412-1.125-38.029-2.47-57.674-5.398-0.15-0.26-0.479-0.839-0.62-1.09-0.543 0.167-1.73 0.548-2.337 0.742 7.105 1.92 28.365 4.471 28.365 4.471 2.747 4.267 6.547 7.733 9.502 11.824-36.382 1.702-83.671-24.952-84.671-25.236 7.171 7.461 40.762 19.573 52.371 22.464-1.067 0.207-2.015 0.382-2.893 0.536-38.614-5.267-31.861-5.123-45.811-7.114l-0.013 0.065c54.881 13.46 91.098 10.941 109.84 11.388-2.234 1.531-4.879 0.709-13.73 1.348v0.066c63.894 4.071 9.969-3.095 61.374 13.819-1.806 1.039-1.563 1.761-28.148-7.688l-0.03 0.059c5.004 3.356 22.804 8.211 25.67 9.938-21.198 3.587-22.462 1.837-24.701 4.2-0.124-0.118-0.249-0.249-0.305-0.313-14.646-2.663-36.126-20.756-38.172-21.214 5.321 5.455 11.576 10.077 18.614 13.851-4.822-0.604-18.485-9.567-22.321-11.127l-0.037 0.053c5.635 6.261 31.637 17.897 32.638 18.231-18.717 8.369-31.783-9.715-46.029-11.865 2.539 2.425 28.798 14.076 31.346 16.006-1 0.036-33.359 4.987-38.212 7.114l0.011 0.063s46.067-3.871 46.07-3.871c0.655 0.205 0.518 0.131 1.951 1.017-4.405 0.416-8.669-0.166-13.163 0.396-0.021 0.053-0.574 1.536-0.594 1.59-25.774 3.757-21.295 6.857-28.62 4.146-48.807-18.944-93.555-12.2-103.12-6.858l0.018 0.062c14.02-0.547 32.038-14.445 104.29 8.135-0.078 0.33-0.275 1.116-0.341 1.396-0.493 0.063-59.299-13.27-59.523-13.278l-0.013 0.064c10.011 3.908 41.746 9.616 55.251 14.601-8.647 3.306-25.675 10.455-32.534 16.783l0.034 0.055c2.981-1.141 5.727-2.834 8.382-4.472 10.906-6.723 16.25-7.244 25.646-11.479 2.927-0.095 2.538-0.035 8.678 2.344-4.141 2.019-8.929 2.551-12.92 5.005l0.027 0.06c15.415-4.858 14.375-4.839 18.369-3.209 0.022 0.432 0.022 0.728 0.034 1.054-2.077 0.49-3.775 0.899-5.325 2.168 5.762 0.227 3.512-6.096 19.98 2.869-1.854 2.112-4.115 3.862-6.299 5.617l0.036 0.055c2.577-1.344 4.604-3.516 6.875-5.244 3.336 0.477 25.094 11.173 30.585 14.495-21.904 6.264-76.692-5.383-86.344-5.484l-9e-3 0.065c16.18 4.136 67.246 9.958 67.372 10.018-20.546 4.827-12.654 4.905-22.833 2.642l-0.024 0.061c4.449 2.578 17.923 4.489 20.046 6.974-5.92-0.025-29.542-0.586-35.39-1.687-42.31-7.508-66.45-19.15-66.45-19.15 3.584 2.963 24.009 12.138 39.956 15.423-0.711 0.213-1.423 0.426-2.128 0.638-34.851-5.813-56.272-11.423-56.272-11.423l-0.015 0.064c28.073 8.059 52.25 12.866 93.304 17.077 5.102 4.254 10.972 8.182 17.946 12.009 0.1 0.257 0.284 0.764 0.373 1.016-0.088 0.265-0.302 0.913-0.361 1.088-3.13 2.345-6.411 4.703-9.453 7.272l0.04 0.053c3.664-2.466 7.024-5.508 10.907-7.663 3.581 1.35 23.41 11.765 24.412 12.376-24.121 5.341-21.971 4.685-23.079 5.677 2.209-0.115 4.195-0.363 6.392-0.534-1.972 1.517-15.55 8.539-17.757 24.964l0.06 0.024c1.973-2.738 3.56-27.458 38.432-28.442-3.63 4.874-17.3 17.591-21.962 26.083l0.05 0.042c3.77-3.052 19.525-23.393 26.104-25.75 0.599 0.271 1.444 0.661 2.077 0.945-1.06 1.473-2.202 2.912-3.352 4.396l0.042 0.049c1.458-0.811 2.849-1.871 4.25-3.238 0.81 0.418 1.81 0.947 2.637 1.383-1.773 0.748-3.385 1.509-4.927 2.327l0.024 0.061c2.196-0.603 4.443-1.409 6.773-1.604-1.947 2.54-6.659 1.856-7.204 5.523 4.125-1.114 7.535-4.132 11.79-4.496-4.596 3.361-24.462 8.437-40.341 31.542l0.047 0.045c1-0.755 16.785-17.847 26.01-22.445-21.286 20.147-18.856 16.577-21.735 21.66l0.051 0.041c21.662-19.381 27.993-27.113 39.702-29.42-0.967 1-47.496 33.74-55.787 65.496l0.063 0.02c7.035-18.487 26.201-39.35 40.64-52.754 0.018 1.183 0.049 2.429 0.064 2.851 3.392-2.055 6.296-5.289 10.234-5.332-6.385 4.196-39.641 34.993-43.013 45.152 3.855-3.492 6.408-7.843 9.843-11.625 0.111 0.321 0.403 1.172 0.503 1.458 1.948-2.276 3.743-4.556 4.999-7.192h1e-3c2.872-5.651 33.099-33.866 42.282-35.388-1.811 2.518-9.665 7.567-12.132 9.097l0.028 0.06c5.308-1.828 11.528-8.839 15.358-8.752-2e-3 0.587-39.951 41.167-40.283 41.454-0.023 0.021-0.034 0.03-0.065 0.057l5e-3 1e-3c-2.608 2.41-4.893 5.579-6.981 9.691l0.048 0.042c1.829-1.282 3.295-3.457 5.701-3.584 21.61-2.485 52.593-15.087 52.593-15.087-25.791 16.291-35.483 20.08-43.465 24.868l0.024 0.061c10.518-2.441 50.467-27.047 52.87-29.021l1e-3 2e-3c2.08-1.716 4.56-2.812 6.808-4.285 2.384 0.039 4.508-0.944 6.694-2.087-3.35 4.31-7.174 7.915-10.662 12.315 4.527-1.284 12.018-11.479 16.964-11.54-0.643 0.577-1.575 1.437-2.36 2.144-11.19 9.194 4.484 2.231-21.691 13.379-12.648 5.39-11.179 3.026-14.187 5.947-20.832 9.989-33.315 13.802-49.1 30.95l0.045 0.048c20.681-16.71 28.943-21.434 49.077-29.765 3.671 0 13.119-3.218 15.796-4.054h2e-3c0.014-6e-3 0.113-0.037 0.127-0.041l-0.019-4e-3c2.263-0.95 4.886-2.022 7.594-2.849-3.446 5.043-10.703 4.61-14.837 8.869l0.034 0.054c3.849-1.276 7.276-3.708 11.275-4.661 0 1e-3 -10.868 16.873-10.869 16.874-1.518 0.425-3.166 1.023-4.555 1.594 0 0 1.058 1.795 1.11 1.884 0.874-0.497 1.101-0.635 2.161-1.211 0.105 0.327 0.324 0.993 0.496 1.529-13.065 9.843-12.042 9.681-12.879 13.09 3.157-2.197 5.068-5.809 8.598-7.341-0.856 1.001-13.396 14.06-21.834 28.73 0 0-1e-3 1e-3 -1e-3 2e-3 -1.655 2.568-3.516 5.126-4.273 8.143-54.748 19.417-102.22 87.66-100.98 134.34 1.213 93.317 2.502 31.847-8.984 79.444 0 0-2.686 23.613-2.687 23.614-6.903 37.673-26.74 32.288-20.235 97.153-3.29 12.767-9.162 30.555-16.44 41.473v6e-3c-4.939 15.325-4.937 56.896-5.03 58.736-0.037 0.036-0.747 0.726-0.764 0.742-1.307 1.108-17.479 24.631-20.538 35.348-4.862 17.053 7.674 24.716-9.235 54.282-15.524 27.138-3.151 44.519-23.229 65.604-22.64 28.524-8.038 31.961-23.302 55.06-0.646 1-2.879 3.259-6.251 9.577-6.104 4.96-16.628 10.12-18.983 27.175l0.064 0.017c7.847-21.213 16.945-19.873 27.157-31.896-0.644 2.95-2.653 7.148-4.054 9.809-3.371 1.404-9.932 5.021-11.611 9.57 1.817-1.35 3.67-2.678 5.651-3.7-0.131 0.868-0.212 1.469-0.321 2.214-0.853 0.752-1.788 1.661-1.788 1.661-9e-3 0.122-0.185 1.821-0.222 2.344 0.246 0.151 0.521 0.324 0.901 0.573 1.456-2.507 3.434-4.466 5.842-6.154 0.348-0.015 1.014-0.027 1.369-0.034-0.137 0.737-0.298 1.655-0.42 2.373 2.04-2.054 4.295-3.974 4.786-6.801 2e-3 -2e-3 9.151-11.581 9.151-11.581 1.161-1.138 2.103-2.429 2.801-3.443 0.051 0.37 0.138 0.996 0.185 1.332-0.353 0.726-0.727 1.525-1.146 2.448h-1e-3c-2.751 4.804-2.814 10.496-3.084 15.953-2.77 6.245-13.416 9.89-16.94 20.239l0.055 0.033c1.969-2.073 3.507-4.631 5.96-6.181-0.644 4.501-5.925 6.014-6.808 13.27l0.064 0.014c1.227-4.054 4.246-7.168 6.412-10.684 0.546 0.485 1.14 1.063 1.671 1.573 0.058-4.555-1.493-4.234 7.18-11.479-0.25 1.678-0.399 3.343-0.554 5.186-7.944 8.788-7.391 8.752-5.912 9.798-2.174 7.332-4.226 3.677-5.602 10.958-1.302 6.875-5.28 7.32-10.319 15.016l0.049 0.044c3.375-2.808 5.756-6.597 9.03-9.535-0.312 11.618-10.975 15.119-14.883 25.865 5.11-3.465 8.516-8.532 13.423-12.026-1.076 13.045-2.672 10.22-2.375 17.072l0.063 0.014c2.231-4.57 2.482-9.797 3.117-14.71 5.212-5.67 8.907-7.074 9.91-7.304-0.295 1.637-0.872 3.149-1.825 5.747 2.086 3.436 2.802-2.907 9.903-4.651 5.54-1.359 3.76-3.643 9.289-6.268 5.037-2.382 3.664-7.806 10.523-4.855-2.161 3.042-13.419 15.547-15.92 22.94l0.065-0.024c5.334-2.015 0.109-2.324 18.695-22.482 1.414 1.507-0.209 3.514-0.97 9.927-28.281 47.987-48.722 42.466-48.722 61.065 0.864 0 1.943 0.014 1.943 0.014 4.361-6.106-1.57-6.198 15.431-18.673 2.861-2.1 12.644-9.365 15.07-13.546 0.581-1.002 10.364-16.96 14.54-19.169-0.096 0.964-0.207 1.927-0.339 2.942-0.873 1.648-1.568 3.22-2.173 4.858 1.155-0.701 2.305-1.45 3.146-2.45 0.947 0.837 1.912 1.724 2.847 2.582-0.121 1.071-0.235 2.218-0.386 3.404-1.546 3.352-4.426 5.771-5.73 9.364 6.982-3.736 30.727-41.649 31.116-42.649 0.644-0.399 1.283-0.748 1.945-1.116-1.051 4.151-3.504 7.639-4.807 11.88 4.142-2.948 8.833-16.822 12.585-20.857-0.458 4.112 0.196 8.271-0.455 12.395-0.393-0.891-0.713-1.538-1.117-2.393-1.868 9.021-17.287 23.387-19.517 30.496 2.803-2.344 11.887-11.697 15.238-16.924 0.339 13.203-24.412 23.36-27.979 33.067 4.77-2.507 5.149-3.018 17.676-13.988 1.928-0.884 3.434-2.437 5.111-3.616 2.498 0.848 0.303 3.981-0.12 5.72-0.675 1-9.528 13.621-15.446 16.522 0.507 0.132 1.567 0.419 2.078 0.561-2.619 4.153-5.843 7.928-8.489 12.112 0.65 0.263 1.462 0.646 2.037 0.909 17.08-20.703 21.651-30.035 29.864-39.648l2e-3 2e-3c0.026-0.036 0.017-0.025 0.041-0.053l-2e-3 -2e-3c0.606-0.853 1.102-1.546 1.555-2.174 2.481 3.489-5.926 8.738-8.037 15.373 1.674-1.045 8.665-9.255 9.528-10.258 1.452 3.43 2.617 9.489 0.308 14.464 0.039 0.078 1.468 3.095 2.08 4.432 0.141-1.656 0.281-3.165 0.487-5.057 0.945 8.119-0.931 13.286-0.846 23.12l0.063 0.015c2.521-5.271 1.62-11.788 2.2-16.135 0.041-0.451 0.373-4.428 0.254-4.865 0.013-1.953-0.048-4.199 1.727-5.393 0.244 0.938 0.467 1.9 0.665 2.866-0.844 5.733-1.097 11.654-1.441 17.257l0.063 0.016c0.646-1.463 1.176-2.948 1.61-4.216 0.23 0.39 0.483 0.843 0.703 1.243 0.118-1.701 0.269-3.389 0.493-5.081 2.298 5.186 3.336 10.745 5.059 16.423 0.219-0.869 0.47-1.874 0.702-2.728 3.769 14.958 5.898 22.858 1.326 38.612l0.057 0.03c1.511-1.828 2.472-3.787 2.868-5.82 0.904 1.647 1.846 3.018 3.363 4.086-0.39-1.058-0.809-2.078-1.245-3.12 0.447-0.508 0.902-0.983 1.342-1.444 0.437 1.843 0.946 3.723 1.555 5.743l0.064-4e-3c1.668-9.56 0.757-7.152 2.77-11.355 0.253 0.971 0.498 1.93 0.717 2.957-0.014 0.096-0.206 1.392-0.206 1.395 3.559 3.882 0.566 10.151 3.596 18.044 4.622 7.131 70.027 12.853 77.178 3.821-0.983-7.369-15.913-29.442-14.149-32.186-0.085-0.248-0.532-1.455-0.888-2.358-0.11-0.995-0.221-2.026-0.328-3.067 2.119 2.367 3.464 5.571 4.71 8.896 0.683-0.055 1.194-0.072 1.698-0.072-25.603-58.521-6.988-10.16-32.913-56.501-1.427-2.552-3.046-5.443-6.199-6.078-0.814-1.532-1.714-3.002-2.201-4.604 0.353-3.256 1.371-6.428 1.489-9.702 0.298-0.025 0.69-0.055 0.948-0.077 1.695-6.498 5.906-13.444 7.933-20.481l1e-3 1e-3c0.632-2.235 1.923-4.169 3.382-5.969-1.037 6.039-3.49 11.659-3.332 17.98 0.668-1.148 4.423-14.356 4.539-15.541 3.586-6.216 6.908-12.701 10.585-18.854 3.2-2.028 3.847-5.906 5.678-8.907-2.662 11.744-4.096 8.581-7.485 22.775-4.768 8.27-10.519 23.243-10.43 29.36l0.065 0.01c7.306-24.763 6.406-18.516 18.711-39.928 0.35 0.374 0.799 0.849 1.143 1.217-7.84 24.005-5.408 14.926-9.587 23.915l0.054 0.036c23.373-24.375 16.473-44.87 30.754-77.833 4.557-10.519 17.702-50.862 17.821-76.567 0.463-1 11.083-22.376 12.229-31.406 0.397-2.359 0.872-4.967 1.228-6.994 11.273-18.484 1.814-31.353 10.811-70.041 0.714-2.85 0.586-12.177-1.17-15.222 11.693-44.705 51.73-61.103 70.54-83.069 10.429 9.884 29.836 20.588 33.215 22.362 35.93 20.664 29.327 36.055 31.971 75.537 5.414 80.726-28.333 65.576 1.013 116.89 23.27 31.723 19.747 29.981 47.979 88.073-0.844 9.067-4.25 25.85-3.956 29.917l0.066 3e-3c0.144-0.978 0.265-1.99 0.408-3.034 1.903 3.901-0.667 8.113 0.24 12.418 1.915-4.28 0.366-10.558 3.63-17.844 0.213 1.097 0.451 2.366 0.63 3.664-0.457 2.517-0.848 15.008 0.065 18.99l0.065-8e-3c-0.373-10.726 1.965-24.099 3.494-27.867 0.623-0.049 1.254-0.124 1.871-0.139 1.457 9.361-0.968 18.176 0.073 23.427 2.152-4.899 0.734-10.271 2.359-15.207 0.59 1.62 0.991 3.408 1.194 5.318-0.166 1.002-1.747 14.508 1.193 26.268 0.414-0.313 0.809-0.599 1.254-0.883 0 1e-3 12.118 21.948 12.119 21.949 0.624 1.104 1.267 2.228 1.968 3.228l1e-3 3e-3c3.056 3.056 5.041 8.06 9.615 10.53-3.68-6.816-3.514-3.191-3.628-9.815 9.899 15.122 11.168 16.74 19.596 26.24 0.504 1.897 1.085 3.596 2.107 5.251 1.271-9.66-0.303-8.756-1.826-14.699 1.251 1.151 2.637 2.298 4.28 2.965 0.619 0.596 2.736 2.582 3.49 3.185 3.194 2.875 6.83 5.301 10.193 7.808 0.713 5.086 3.865 2.284 3.811 14.572-0.926 2.66-0.214 0.289-1.611 4.948v1e-3c-0.745 2.639-1.184 5.037-1.458 7.539 1 0.161 2.342 0.464 5.408 0.802-0.542-0.52-2.513-2.327-3.152-2.925 1.758-0.85 3.552-0.088 5.402 0.578-0.466-1.046-1.026-2.044-1.648-2.977 0.308 0.035 0.936 0.118 1.236 0.159 0.08-3.038 0.128-4.82 0.479-7.948 0.486 1.537 1.058 3.174 1.849 5.283-0.574 1.793-0.44 1.346-1.455 4.536 0.075 0.022 1.653 0.445 1.77 0.477 0.959 11.63 5.987 10.637 12.934 12.215 16.807 2.833 61.245 8.624 72.811-3.993-0.91-4.856-3.9-6.927-13.797-20.9 0.284-0.329 0.774-0.897 1.032-1.203 1.757 0.92 1.777 0.94 2.366 1.265-0.441-1-0.608-1.381-1.515-3.424 0.945 0.485 1.352 0.687 2.276 1.201-0.645-1.755-1.525-3.412-2.743-4.845h1e-3c-5.948-7.291-4.078-4.945-7.86-13.236-0.01-0.021-0.024-0.051-0.035-0.075-4.154-9.34-9.606-23.542-34.303-34.326l2e-3 -1e-3c-11.529-5.146-8.758-5.105-13.422-3.145-21.325-13.713-15.891-10.391-22.95-21.716-3.433-7.262-9.891-12.459-14.471-18.888-9.681-15.151-60.774-130.73-54.715-150.9 13.882-38.443 46.989-64.476 48.92-152.19-2.161-29.176-5.775-23.035-4.113-34.928 3.915-27.932-4.461-19.271 4.008-37.119 8.057-16.985 11.117-42.317 3.714-68.325-0.229-1.114-0.899-2.649 0.543-3.188 23.774-15.143 31.241-8.637 44.946-12.568 52.217-14.939 128.67-66.333 196.19-170.31 5.456-8.324 20.456-51.082 28.381-55.494 28.017 4.959 67.643 15.012 89.159-6.223 45.877-53.051 30.095-18.637 79.33-77.513 0.632 15.229 8.255 17.74-11.775 42.379l0.048 0.045c17.244-15.568 14.291-22.018 14.482-27.361 0.412 8.894 3.281 13.16-4.708 23.697 1.039-0.374 2.02-0.931 2.7 0.121-1.34 5.259-6.072 8.69-8.232 13.539l0.053 0.038c8.481-7.884 9.408-12.592 11.834-16.245-0.84 5.34-4.083 9.897-6.691 14.459h-1e-3c-2.015 3.778-5.141 7.746-6.014 11.759 1.685 1.153 2.103-1.896 8.291-11.135 0.218 0.288 0.922 1.218 1.144 1.503 0.713-1 1.396-1.914 3.161-4.45 0.104 0.553 0.294 1.535 0.392 2.023-0.59 1.137-1.252 2.245-1.839 3.375-0.416 0.109-2.085 0.537-2.085 0.537-1.04 2.23-2.36 6.864-3.593 9.498 0.44 0.363 1.429 1.186 1.878 1.56-1.07 1.959-2.012 4.073-2.274 4.813v1e-3c-1.873 5.104-1.023 10.694-1.492 16.047l-1e-3 -2e-3c-1e-3 0.025-3e-3 0.087-5e-3 0.11l1e-3 1e-3c-0.166 4.366 1.144 8.671 2.074 12.936-3.017 2.633-2.295 4.892-11.138 10.949l0.031 0.058c9.623-3.854 6.692-6.804 15.008-12.156-1.334 7.886-2.207 16.527-8.765 21.951-1.513 1.252-3.076 2.546-3.654 4.591-2.374 1.17-4.733 2.47-7.215 3.389-0.34 0.031-0.658 0.066-0.974 0.101-1.959 4.04-2.119 8.264-2.704 12.68l0.061 0.023c1.141-1.637 2.051-3.536 3.797-4.596 0.316 1.02 0.631 2.023 0.935 2.982-31.743 21.947 19.545 85.795 36.785 84.564 3.931-4.368 12.624-27.221 13.951-30.708 0.585-0.427 1.214-0.832 1.822-1.231 0.158 0.742 0.347 1.583 0.483 2.211 1.117-2.157 2.001-4.484 2.445-6.893 1.42-2.307 3.062-4.521 4.251-6.958 11.133-20.028 10.032-18.014 11.972-33.599 1.522-12.223 3.459-13.646 2.566-18.312 1.176-3.999 3.223-7.757 5.203-11.391 15.311-28.106-3.244-41.231-5.443-59.594-10.964-78.627 10.608-119.87-30.536-135.25-24.523-9.336-46.469 9.805-60.177 19.773-11.949 9.347-32.682 15.943-38.789 19.093-21.93 11.707-9.179 6.263-30.049 20.524-1.28-1.385-13.773-16.194-14.342-17.213 25.64-31.438 42.396-57.486 79.271-68.146 12.227 4.943 9.031 0.449 25.768 17.631l2e-3 4e-3s0.351 0.281 1.686 1.168c-0.975-8.837-3.617-3.481-8.823-15.004 0.317-0.041 0.848-0.1 1.212-0.148 12.71 10.995 10.463 10.044 13.481 11.41-2.71-4.128-6.995-6.636-11.945-14.2 0.209-1.236 1.668-1.116 2.668-1.707 4.361 2.647 7.862 6.507 12.102 9.329l0.046-0.047c-9.203-12.744-14.048-9.788-20.553-13.627 14.122 1.26 18.828 8.274 27.27 10.516-0.59-1.59-9.609-8.558-10.896-9.52v-1e-3c-0.016-0.011-0.059-0.043-0.075-0.056l1e-3 5e-3c-2.143-1.504-4.348-2.869-6.339-4.529 6.664 0.66 7.454 3.451 12.51 5.534 4.343 1.918 7.999 4.373 12.756 5.7 0-2.69-1.268-3.653-8.713-6.847-1.691-1.357-3.644-2.505-5.969-3.506 0.196-0.168 0.571-0.485 0.766-0.654 0.402 0.107 1.154 0.318 1.581 0.439l-5e-3 1e-3c9.363 2.444 11.133 7.619 21.241 6.987 0-0.412-0.012-1.121-0.02-1.537 5.821 2.249 17.569 1.362 18.572 1.275 0.033-0.122 0.426-1.385 0.479-1.553 3.551 2.411 2.01 2.331 9.976 11.632l0.057-0.032c-2.641-7.668-11.702-15.043-13.059-16.438 4.093-1.66 8.785-0.342 11.967 0.799 1.396 2.154 2.726 4.116 5.111 5.099-0.937-2.406-2.59-4.88-4.901-6.969 4.322-0.62 3.077-0.351 6.337-0.309 19.092 9.4 11.99-0.847 25.324 13.32 0.721-1.36 0.748-2.795 0.182-4.114l1e-3 -5e-3c-0.01-0.013-0.04-0.087-0.047-0.103l-7e-3 0.033c-1.483-1.978-3.054-3.824-4.52-5.736 0.61-0.402 1.16-0.707 2.223-1.342-3.998-0.938-5.334-1.089-9.794-2.574 2.818-3.096 1.252-1.843 10.532-1.5-1.187-0.772-2.11-1.366-3.024-1.986 4.111 0.412 6.43 4.493 9.434 6.79 1.074-2.327 0.274-2.73-1.275-5.084 4.218 1.196 4.288 5.668 11.909 8.703-1.855-2.432-4.649-3.476-6.262-5.921-0.029-0.716-0.042-1.432-0.042-2.149-0.666-0.856-1.123-1.393-1.788-2.358 1.737-0.535 3.749-1.164 5.722-1.88l-0.013-0.064c-1.818 0.056-3.638 0.232-5.408 0.524-5e-3 -0.102-0.062-1.091-0.063-1.092 0 0-2.156-2.188-2.395-2.437-5.414 0.734-4.428 1.052-11.478-2.376l3e-3 -1e-3c-0.019-9e-3 -0.056-0.025-0.074-0.034-0.501-0.225-0.98-0.434-1.503-0.659 5.076-1.135 4.763 0.048 10.735-0.745 0.508 0.81 0.917 1.458 1.455 2.232l0.333-0.176v2e-3c0.046-0.027 0.039-0.023 0.061-0.034 0.727-0.419 1.876-1.061 2.138-1.203 0.233-0.711 0.433-1.346 0.705-2.063 9.055 3.651 9.028 7.257 15.498 8.577-1-0.875-2.892-2.555-5.225-4.361 8.723-3.146 14.47 11.465 20.085-3.715 16.89-4.106 12.873 4.926 47.583-34.682 11.641-13.766 9.741-12.477 9.453-17.237zm-280.37-291.48c-1.049 0.149-2.104 0.28-3.139 0.388-3.074-0.532-6.613-1.232-9.737-2.815-0.03-0.13-0.242-1.068-0.316-1.391 4.357 1.328 9.152 1.607 13.192 3.818zm-146.03-120.19c-1.521-2.231-3.058-4.678-3.995-7.45 2.541 0.523 3.844 2.745 4.872 5.07l0.063-0.02c-0.206-1-0.419-2.002-0.619-3.092 11.328 2.968 25.089 12.742 32.871 21.115-0.388 0.938-0.68 1.716-1.052 2.647-2.877-3.809-6.732-7.062-11.152-9.409l-0.038 0.054c1 0.937 11.701 9.921 15.053 16.336-3.16-2.634-5.799-5.896-9.13-8.347-3.406-2.478-6.488-6.027-10.833-6.52-1.618-1.396-3.58-2.342-5.37-3.422-2.2-2.344-5.59-3.372-7.218-6.24-0.66-1.296-2.315-0.577-3.452-0.722zm32.68-2.325c9.378 8.091 25.635 25.192 25.46 37.246-5.112-16.538-14.375-26.496-26.203-36.429-0.08-0.226-0.231-0.648-0.319-0.891 0.268 0.02 0.841 0.057 1.062 0.074zm-9.379-4.791c-3.362-0.179-12.061-7.767-20.013-11.134-0.117-0.404-0.213-0.833-0.294-1.301 21.234 11.305 12.548 6.985 20.307 12.435zm11.552 17.168c-0.025 0.095-0.354 1.329-0.396 1.478 2.02 2.917 4.265 4.625 4.525 7.556-14.708-15.764-29.442-21.368-32.67-23.393h-1e-3c-11.871-7.097-11.315-0.824-15.07-11.206 17.266 6.664 30.409 12.716 43.612 25.565zm-101.19-60.184c-4.014-2.737-34.789-23.27-34.81-23.282 0.203-0.138 0.544-0.369 0.731-0.496 9.788 4.267 19.118 12.672 24.17 14.53-1.382-2.471-3.853-3.476-5.926-5.091 8.196 2.236 14.417 9.014 17.648 10.44 0.125 0.997 0.257 2.009 0.385 2.99-3.857-2.199-6.723-6.138-11.083-7.438l-0.033 0.055c4.348 4.297 8.116 5.397 8.918 8.292zm-417.32 259.64c0.989-1.725 2.318-3.23 3.593-4.771l2e-3 2e-3c0.029-0.039 0.02-0.028 0.041-0.053 2.396-3.2 5.531-5.723 8.805-8.235l0.309 0.534c-1.412 1.701-10.246 10.845-12.75 12.523zm-179.17 1187.4c1.463-3.66 3.253-7.385 6.413-9.864-0.28 4.798-3.311 8.833-5.285 13.091-0.383-1.081-0.776-2.221-1.128-3.227zm7.97 6.712c-1.712 0.709-3.386 1.8-4.977 3.241-0.144-0.357-0.387-0.948-0.519-1.261 3.165-4.546 6.278-9.292 9.254-14.107 2.778-0.961 4.961-2.932 7.068-4.851-0.755 3.708-0.681 7.194-10.826 16.978zm1.476-13.567c-0.06-0.413-0.123-0.874-0.179-1.263 0.854-6.087 5.399-10.473 8.774-15.201 0.354-0.034 1.021-0.099 1.397-0.135-1.657 3.646-7.468 13.476-9.992 16.599zm-2.078-52.43c7.331-8.569 6.302-24.763 13.963-43.119 0.147 1.108 0.232 2.183-0.196 3.177-4.811 13.184-3.558 32.726-12.719 41.221-0.273-0.337-0.773-0.947-1.048-1.279zm9.843-6.529c5e-3 0.115 0.09 1.269 0.099 1.384-3.547 4.143-4.519 10.464-5.881 12.364-1.256 0.944-2.454 1.796-3.727 2.736 1.383-3.189 2.853-6.288 4.436-9.725 5.283-6.143 6.36-27.976 10.532-33.906l1e-3 1e-3c0.031-0.052 0.027-0.045 0.04-0.064l-1e-3 -2e-3c2.636-4.416 2.587-7.165 5.202-7.303-9.419 12.938-6.072 27.902-10.701 34.515zm12.057 62.945c-0.617-0.084-1.12-0.131-1.705-0.176-0.384 0.292-1.872 1.527-2.243 1.836-1.399-2.183 0.942-3.842 2.575-5.084 0.333-3.11 4.691-12.62 8.356-16.591-1.191 16.833 1.186 8.324-6.983 20.015zm7.579-93.301c-7.088 9.546-11.068 16.707-12.798 20.663-0.102-6.229 9.899-22.08 13.416-27.271 0.295 2.225-0.189 4.47-0.618 6.608zm-14.781 23.263c-0.307 0.739-0.787 1.747-1.151 2.59 0.104-16.88 7.692-27.839 16.94-41.786-0.053 10.587-14.967 22.39-15.789 39.196zm16.713-25.849c-0.989-3.221-0.302-7.095 1.766-9.91 0.17 0.396 0.527 1.252 0.674 1.592-0.112 3.288-0.934 6.085-2.44 8.318zm15.545-62.382c-0.726 2.4-1.742 4.698-2.674 7.118-0.387-0.836-0.767-1.695-1.129-2.559 0.854-4.558 2.776-8.87 4.626-13.121 0.382 2.92-1.256 5.623-0.823 8.562zm-7.815 6.537c4.159 9.243-1.885 29.474-2.082 34.962-0.367 1.047-0.759 2.127-1.162 3.209-1.568 1.579-1.136 0.282-3.663 5.659 0.316-4.842 8.229-24.079 6.663-31.753l-0.065 1e-3c-0.902 5.315-4.012 16.739-5.916 20.866 0 0-6.422 10.862-15.56 21.049-1.493 1.655-2.252 3.785-2.985 5.814-0.34 0.933-0.807 2.208-0.809 2.213-0.882-3.94 5.518-14.287 6.071-15.371 2.542-4.766 16.071-17.381 17.181-42.002 0.138-3.049 0.299-7.391 1.919-10.632v-1e-3c1.183-2.58 3.027-9.005 11.422-18.987-2.842 7.157-9.664 18.223-11.014 24.973zm21.332-52.175c-0.433 1.06-0.828 1.873-1.295 2.873-0.359-4.039 0.114-8.171-0.645-12.187l1e-3 -2e-3c-1.219-4.878 2.557-21.38 6.081-24.899 0.329 1.2 1.017 2.451 0.445 3.713-8.541 24.441-3.426 19.914-4.587 30.502zm6.11-10.171c-0.344 1-1.023 3.328-2.103 6.307-0.776-5.777-2.268-4.315 2.171-18.205 0.114-0.074 0.294-0.201 0.41-0.286 0.069 0.928 0.102 1.454 0.158 2.205-1.032 3.356-0.87 6.909-0.636 9.979zm0.725-36.326c-1.886 1.718-13.508 19.942-12.453 31.679l0.065 4e-3c4.009-17.975 3.942-17.279 8.663-23.913 0.137 0.604 0.404 1.727 0.51 2.176-5.406 8.358-7.53 20.268-7.084 23.622-0.177 1.183-0.402 2.406-0.591 3.454-0.085-1.75-0.198-3.43-0.42-5.164-1.14 1.382-0.12 21.084-0.042 22.091-2.871 7.337-1.103 15.019-15.568 29.449 2.193-5.933 6.455-10.916 8.978-16.695 12.295-32.107-5.422-39.953 13.605-63.533 2.133-2.642 4.337-5.374 5.516-8.687 0.111 0.332 0.312 0.935 0.424 1.246-0.603 1.248-1.128 2.643-1.603 4.271zm17.299-79.151c-0.023 0.04-0.017 0.031-0.034 0.057l1e-3 1e-3c-0.976 1.699-1.898 3.296-2.953 4.756 0 0 11.406-23.24 14.237-36.162 0.225 0.379 0.539 0.899 0.771 1.283-2.683 10.244-9.716 26.375-12.022 30.065zm87.321 249.71c1.662-6.712 8.896-16.905 12.197-28.06 0.185 0.787 0.386 1.583 0.605 2.371-4e-3 0.01-13.336 31.735-13.608 32.736-0.546-2.337 0.181-4.649 0.785-6.959 2e-3 -8e-3 0.02-0.08 0.021-0.088zm-26.991 56.229l-1e-3 -2e-3c-0.034 0.039-0.021 0.026-0.046 0.05l2e-3 3e-3c-3.55 4.175-5.888 9.309-9.166 13.719-1.835 2.54-3.811 4.836-4.263 7.799-1.196 2.652-2.941 5.554-5.357 10.133-0.189-2.48-0.468-4.868-0.625-7.24 0.656-0.591 1.653-1.424 2.21-1.87 0-1e-3 -0.032-3.408-0.036-3.718l-0.065-7e-3c-0.426 1.861 0.014 4.378-2.201 5.184-0.768-5.422-1.935-10.882-3.066-16.011 20.669-45.856 17.271-27.631 27.252-42.798 0.024-0.036 0.016-0.023 0.037-0.056 0.881-1.347 1.576-2.48 2.182-3.556-3.686 22.212-23.619 47.103-23.183 55.928 1.354-1.741 2.021-3.509 2.922-5.517-0.555 2.882-1.94 5.431-2.477 8.434 3.999-3.645 11.181-35.783 19.858-40.91-0.922 5.329-3.813 10.1-5.075 15.344l0.061 0.024c1.788-3.178 7.392-18.685 7.406-18.706 1.716 3.526-1.342 6.826-1.291 10.616 2.466-3.719 3.652-8.155 3.54-12.565 1.945-2.142 4.234-3.99 5.963-6.32-0.681 1.3-8.629 26.388-14.581 32.042zm14.984-39.34c-1.947 2.95-0.601 1.384-5.504 6.619 0.632-4.709 1.894-9.363 2.021-14.13 0.145-0.324 0.462-1.017 0.609-1.338 2.386-5.041 2.691-10.728 4.151-16.02 3.218-3.814 4.276-8.938 7.267-12.866 0.404-0.131 0.745-0.248 1.056-0.35-1.021 2.539-1.524 5.075-1.837 7.775 3.06-1.867 1.611-6.108 4.211-8.21-0.808 3.583-1.185 4.043-2.017 7.443-4.532 3.426-8.985 26.275-9.957 31.077zm13.275 3.508c-1.653 5.732-2.386 24.462-13.32 41.946-1.191-4.259 4.943-11.224 3.925-17.954 3.738-21.363 7.875-37.114 13.324-46.773 0.167 0.022 1.591 0.198 1.66 0.204 2.336-4.259 4.662-8.453 6.33-12.849 0.08 0.105 0.414 0.533 0.553 0.703-2.607 8.722-5.182 9.439-12.472 34.723zm321.6-1373.9s5.237 1.731 26.732 11.069c-9.678-1.196-26.137-9.851-27.139-10.328 0.113-0.205 0.292-0.539 0.407-0.741zm-18.287-3.548c7.681 1.858 16.35 4.813 19.849 6.974-4.633-0.36-16.334-3.439-17.451-3.794-1.442-1.246-3.299-2.171-5.675-2.825 1.252-0.144 2.231-0.267 3.277-0.355zm-12.593-1.05c0.073 0.103 0.462 0.662 0.476 0.682l1.261-0.022c0.951 0.284 1.903 0.606 2.846 0.915-1.095 0.23-1.978 0.405-2.77 0.546-18.509-2.58-37.685-2.407-55.016 5.141-0.489-0.139-1.099-0.316-1.609-0.459 22.562-10.159 37.99-10.258 54.812-6.803zm-73.251 18.659c1.02-0.291 2.066-0.552 3.137-0.814 5.134 3.365 9.994 7.428 15.655 9.992l0.034-0.057c-4.913-3.699-10.393-6.74-15.252-10.553 3.787-3.727 20.783-10.683 25.688-10.683 4.168 0.949 7.787 3.647 12.041 4.43l0.026-0.059c-3.196-2.395-7.667-2.4-10.509-5.287 8.319-3 10.1-2.061 18.055-3.139 2.786 0.018 24.452 3.876 28.553 3.454l6e-3 -0.064c-2.282-0.662-4.618-1.102-7.008-1.527 0.747-0.286 1.441-0.539 2.12-0.774 9.7 1.539 16.718 2.679 25.118 5.287 2.394 2.397 5.736 3.27 8.858 4.538-4.445 0-39.199-9.369-54.04-7.723l1e-3 0.066c12.964 0.693 63.142 8.929 73.348 17.846-13.059-4.882-45.274-12.272-58.165-11.253-11.966 0.938-11.131-3.42-16.799-4.027 2.026 1.665 4.432 2.344 6.147 4.109-9.421 1.063-8.309-0.164-15.058-1.293l-0.02 0.063c1.405 0.699 2.828 1.393 4.229 2.127-2.022 0.751-4.183 1.02-6.273 1.278-18.407 2.285-11.624 5.404-21.475 2.412 2.615 2.866 23.648 11.803 24.648 12.435-0.64 1.155-13.618 2.577-15.144 2.557-3.045-0.823-5.506-3.11-8.592-3.894l-0.028 0.059c1.729 1.272 3.545 2.523 5.182 3.958-6.139 1.875-33.936 5.326-42.424 3.784 4.611-5.728 10.312-11.21 17.941-17.248zm42.348 5.001c0.385 0.838 0.777 1.663 1.08 2.298-5.979 1.009-16.788-4.859-19.287-6.847 7.227-1.906 34.77-8.606 39.948-2.867-2.261 0.018-4.073-0.06-5.073-0.086-0.018 0.028-0.726 1.148-0.785 1.246 3.894 0.623 7.426 0.253 11.255 0.515 0.159 0.65 0.368 1.44 0.541 2.09-8.913-0.047-19.037 3.552-30.303 1.675l-0.025 0.059c0.81 0.606 1.677 1.233 2.649 1.917zm20.138-10.353c18.212 0.022 31.739 2.465 48.632 7.499-2.226-0.02-27.572-3.888-32.698-5.131-1.151 0.938-12.98 1.38-15.934-2.368zm-81.264 23.597c5.802 2.988 42.874-4.043 48.377-2.732 0-0.296 0-0.851 6e-3 -1.146 1.481-0.37 13.672-3.428 19.822-1.51-9.634 7.966-15.89 4.061-18.079 3.185-1.265 3.479-18.185 1.504-34.402 4.235-6.74-0.65-6.632 1.327-12.815 0.372-1.076-0.167-2.089-0.322-3.159-0.322-0.012 0.076-0.1 0.589-0.127 0.752 5.289 4.897 12.025 7.271 17.592 11.634-9.289 0.927-18.361 0.822-26.97-0.315-6e-3 -0.217-0.02-0.709-0.034-0.965 1.022-1.622 8.301-11.376 9.789-13.188zm56.176 9.788c-2e-3 1e-3 -19.28 4.721-19.28 4.721-3.849-0.389-8.013 0.959-11.664-0.522 17.461-3.751 27.384-5.782 30.944-4.199zm-50.546-3.713c-1.418-0.747-2.885-1.519-3.721-2.981 20.652 2.282 28.032 2.098 37.475 3.757 4.021 0.949 8.191-0.013 12.23 0.737-9.753 2.541-6.309-1.095-16.078 2.791-18.873 8.074-20.008 0.909-29.906-4.304zm-8.503-5.61c-0.06 0.12-9.396 13.558-9.44 13.609-0.798 0.132-1.645 0.207-2.518 0.223 0.681-2.376 9.768-12.278 11.958-13.832zm-20.46 24.852c0.806 0.089 1.324 0.164 2.004 0.272-0.252-0.305-0.811-1.008-1.048-1.298 0.555-2.028 1.794-3.333 3.894-2.963-0.551-0.495-0.868-0.797-1.343-1.23 1.582-2.329 3.126-5.815 6.555-5.037 0 1e-3 -6.147 13.404-6.147 13.405-1.479-0.685-4.974-0.991-3.915-3.149zm18.788 1.287c0.287 0.39 0.83 1.141 1.13 1.559-1e-3 0-13.159 2.797-13.159 2.798 0.712-0.32 1.21-0.71 1.189-1.494-0.767-0.486-1.304-0.82-2.235-1.334 0.441-1.999 1.415-3.785 2.379-5.445 2.751 1.221 5.687 2.012 8.341 3.411-2.533 0.754-5.372 1.175-8.249 1.538 1.98 2.481 2.2 0.737 10.604-1.033zm-34.259 23.687c0.944 0.327 10.883 2.859 11.668 3.063-0.086 0.369-0.253 1.059-0.342 1.417-2.558 1.542-5.067-0.625-13.408-3.956 0.671-0.171 1.415-0.364 2.082-0.524zm-18.704-2.633c6.071-0.588 13.952 2.646 18.845 5.631-6e-3 0-22.978-2.892-22.978-2.892 0.952-0.597 1.887-1.274 2.951-1.626 1.78 0.332 3.509 0.933 5.245 1.432l0.025-0.061c-1.384-0.779-2.735-1.671-4.088-2.484zm-14.033-23.383c7.201 1.89 15.818 5.584 21.332 10.523-0.253 0.046-1.07 0.194-1.487 0.262-9.725-1.876-18.792-9.656-19.845-10.785zm-26.813 19.663c6.502 0.874 26.222 1.378 30.34 3.69-6.035 3.353-13.11 1.226-19.585 2.108-5.684 0.947-34.536 0.88-35.539 0.791 6.435-4.975 23.783-6.452 24.784-6.589zm54.627 560.34c-8.871 4.376-17.671 9.07-26.732 12.951-0.272-0.162-1.013-0.587-1.128-0.652 2.214-1.593 11.664-9.749 30.476-17.236l0.699 0.153c-2.075 1.628-4.497 3.178-6.231 4.406 1 0.121 1.764 0.252 2.916 0.378zm-33.782-17.486c-1.234 0.89-2.557 1.864-3.945 2.684-4.619 1.148-9.746 1.896-15.669 2.287 3.656-3.596 8.034-7.202 13.165-6.974-2.396 2-5.864 2.361-7.447 5.399 3.082-1.311 3.399-1.551 7.372-3.105 1.793-3.288 3.921-3.646 15.544-6.228-2.536 1.878-5.158 3.891-8.365 4.189-2.071 0.215-3.866 0.51-5.521 1.681 1.664 0.059 3.08 0.06 4.866 0.067zm-53.931-48.345c5.363 0 24.692-6.565 27.281-5.584-3.834 1.48-28.971 10.038-32.987 10.928-3.377-1.383-6.717-2.974-9.947-4.469 14.246-3.101 29.974-6.69 34.751-5.955-6.351 1.425-13.012 2.427-19.112 5.016l0.014 0.064zm-2.382 10.015l-2e-3 1e-3c1.554 0.581 3.174 1.114 4.747 1.801-5.325 1.152-10.525-0.743-16.114-0.066 3.244 1.905 6.909 1.64 10.699 1.742 8.7-0.118 8.912 2e-3 11.973 0.791-4.733 1.116-28.634-0.021-30.297-0.121 5.023-1.978 9.869-4.224 14.966-5.747 1.219 0.493 2.631 1.061 4.028 1.599zm5.39-4.343c3.601-0.813 7.231-1.642 10.601-3.064 1-0.421 10.822-4.227 18.96-5.7-1.005 0.513-21.875 9.657-29.561 8.764zm29.919 9.604c13.605-3.891 14.718-3.073 16.264-3.486 2.546-0.349 4.82-0.492 6.957-0.439-5.93 2.368-18.699 5.929-25.475 6.138-0.465-0.126-1.336-0.357-1.888-0.502 1.683-0.218 3.047-0.022 4.821-0.222-0.22-0.534-0.433-0.966-0.679-1.489zm9.936-32.354c-0.881 0.294-1.768 0.599-2.655 0.875-1.795 0.061-3.407 0.025-4.921-0.104 0.577-0.306 1.082-0.566 1.57-0.807h1e-3c0.024-0.013 0.045-0.023 0.071-0.036l-2e-3 -1e-3c5.215-2.96 11.3-3.132 17.194-3.384-1.114 2.116-10.181 2.567-12.402 2.611 0.533 0.386 0.7 0.523 1.144 0.846zm-17 1.451c-26.552 0.367-53.474-7.079-55.311-8.098 5.16-3.494 54.31 7.853 55.311 8.098zm-47.656-19.797c4.795-1.815 4.939-2.433 15.116 0.34-2.61 0.337-5.335 0.42-8.106 0.237-1.175-1.764-2.829-0.822-4.867-0.108-0.906-0.193-1.408-0.309-2.143-0.469zm14.614 10.661c2.469-0.375 5.1 0.472 7.492-0.466 0.015-6e-3 0.748-0.278 1-0.368 8.243-0.019 14.931 0.041 22.747 0.014-0.919 0.227-1.024 0.238-3.06 0.883 4.207 1.514 8.833 1.401 12.463 1.731h1e-3c3.5 0.48 7.108 0.371 10.575 1.264-3.128 1.349-5.364 3.042-8.88 3.545-15.69 2.172-41-5.654-42.338-6.603zm-2.186-63.697c-1.607-0.185-3.272-0.375-4.923-0.331l-0.014 0.063c7.227 3.539 3.43 2.23 10.024 2.527-4.13 1.484-8.607 0.165-12.829 1.228l1e-3 0.064c5.373 1.189 10.91 0.078 16.398 0.849-20.9 3.091-17.752 0.437-58.041-13.873 0 0 70.816 7.777 70.817 7.777-2.962 1.478-6.418 0.642-9.587 0.872v-1e-3c-9.335-0.755-3.347 1.799-11.846 0.825zm-57.98-12.017c10.603-3.916 43.093-6.419 44.093-6.33-0.773 0.187-1.921 0.472-2.622 0.637 2.288 0.753 4.397 0.715 6.862 0.653 0.106 0.239 0.29 0.65 0.395 0.883-49.712 3.582-34.62 7.122-48.728 4.157zm7.742 4.599c-7.405 1.633-7.227 4.322-8.583 0.014 2.655-0.883 6.448-2.753 8.583-0.014zm11.46-68.173c-1.149 0.326-2.094 0.586-2.962 0.817-7.87-0.632-31.109-0.349-32.11-0.367-0.654-0.531-1.155-0.947-1.611-1.336 9.944-2.845 8.433-9.408 21.587-7.624 2.359 0.32 4.798 0.653 7.24 0.561v1e-3c7.13 0.122 16.316 5.041 17.938 6.17-4.557 0.706-10.652-1.025-20.683 0.137l-4e-3 0.065c3.468 0.832 7.067 1.117 10.605 1.576zm0.986 8.789c-8.939 4.523-8.393-2.187-13.532-1.348-0.014 0.086-0.295 1.918-0.31 2.014-5.409-0.409-10.605-1.702-15.893-3.111 8.41-1.651 28.733 2.216 29.735 2.445zm5.598-30.658c-5.115 2.176-10.458 3.914-15.673 5.859l0.018 0.064c17.328-3.335 11.694-7.844 26.315-3.485-11.501 6.464-6.539 5.866-12.773 4.354 0.521 0.81 0.874 1.372 1.396 2.202-1.629 0.902-3.362 1.846-5.295 2.886-4.196-1.937-8.356-4.019-12.463-5.992 4.147-2.355 7.874-5.35 11.906-7.833 0.406 0.083 1.145 0.229 1.568 0.31-0.867 0.792-1.637 1.475-2.51 2.274 2.589-0.493 5.16-2.047 7.511-0.639zm-6.312-96.26c6.615-6.358 12.926-13.572 20.83-18.546-1.426 1.798-3.05 3.468-4.622 5.084-27.482 28.258-10.252 31.169-28.371 23.698 12.685-14.788 11.103-13.017 13.958-15.474 0.366 0.055 1.062 0.152 1.45 0.203-1.295 1.802-2.362 3.319-3.297 4.995l0.052 0.04zm47.59-33.747c0.252 0.033 0.887 0.125 1.172 0.165-26.965 23.428-28.068 29.565-41.817 52.404-1.206-0.712-2.528-1.558-3.306-2.093-1.745-0.087-3.345-0.776-4.878-2.59 2.606-3.797 20.15-17.487 21.842-19.954-4.621 2.178-7.336 6.221-11.635 8.5 9.219-16.321 21.258-25.584 22.954-27.31 0.281 0.157 0.8 0.435 1.049 0.573-3.15 3.118-6.979 5.375-9.366 9.324 1.949-0.805 12.705-10.355 23.985-19.019zm38.204-141.57c-10.459 5.248-38.396 5.963-42.954 10.587 2.324 0.996 1.899-0.351 10.761-2.604 2.543-0.646 5.171-1.313 7.836-1.521-2.635 2.043-6.152 2.245-9.208 3.661 0.68 0.201 1.352 0.405 2.029 0.614-1.007 0.464-13.075 5.549-15.922 6.432-11.642-0.159-21.672 5.496-38.271 6.291 9.91-21.321 42.318-30.302 65.32-35.085 0.334 0.075 1.079 0.256 1.432 0.337-4.509 3.655-6.105 8.633-21.819 11.254-1.668 0.283-20.032 3.915-22.858 6.356 6.81-1.007 13.207-2.835 19.915-4.08-4.967 2.888-10.829 4.104-15.524 7.515l0.026 0.059c8.672-1.804 16.693-6.38 25.489-7.764-1.423 1.594-2.541 2.901-3.68 4.58 11.166-4.94-2.868-4.377 21.583-9.187 3.412-0.558 6.866-1.492 10.375-1.565-1.659 0.821-3.386 1.578-5.032 2.351l0.013 0.063c7.352 0.221 13.898-2.845 15.881-3.166 6.668-0.918 3.299-1.11 13.44-0.254 0 0-8.406 1.948-18.749 5.089l-3e-3 -1e-3c-0.019 9e-3 -0.071 0.024-0.093 0.031l0.013 7e-3zm-6.072-20.303c-1e-3 0-15.646-1.388-15.647-1.388 5.976-2.985 20.648-0.919 22.435-0.336-1.386 0.794-2.841 1.587-4.446 2.424-1.667 0.108-3.343 0.133-4.969 0.152 0.906-0.277 1.729-0.519 2.634-0.787l-7e-3 -0.065zm-13.609 13.913c6.153-1.33 12.093-3.3 16.581-4.867 2.977-0.199 6.071-0.434 9.108-0.05-1.216 0.547-18.222 4.455-19.223 4.641l7e-3 0.066c5.214-0.197 10.321-1.564 15.479-2.136-0.107 0.507-0.306 1.439-0.409 1.925-18.586 2.629-23.634 3.656-28.468 3.656 1.521-0.906 3.031-1.616 4.66-2.317-0.266-0.258-0.678-0.663-0.936-0.927 2.188-1.836 4.691-3.339 7.203-4.858 0.276-0.022 0.788-0.054 1.067-0.076 2.657-0.229 5.251-0.217 7.932 0.185-4.23 1.809-9.106 2.094-13.026 4.698l0.025 0.06zm28.953-7.252c5.29-1.401 10.699-1.049 16.204-0.321-2.351 0.42-4.804 0.782-7.299 1.078-2.93-0.691-6.053 0.204-8.905-0.757zm7.873 38.149c-0.208 0.43-0.598 1.208-0.803 1.612-1.498 0.34-3.005 0.747-4.413 1.138-0.031-0.354-0.093-1.147-0.128-1.551 1.333-0.354 2.881-0.766 4.431-1.193l0.913-6e-3zm14.596 1.408c-1.837 0.793-3.815 1.622-5.892 2.346-7.502-1.28-11.421 3.037-16.702 0.716 6.295-2.374 20.699-3.184 22.594-3.062zm-82.978 329.26c3.117 1.044 3.03 1.971 8.669 4.776h-3e-3c2.888 1.458 5.904 2.706 8.718 4.303-4.509-0.658-40.976-2.139-52.347-4.839 4.005-2.484 25.022-3.34 34.963-4.24zm-41.376 3.596c2.63-2.177 21.955-4.05 25.527-3.828-1.001 0.263-23.627 4.279-25.527 3.828zm16.261-77.836c2.931-2.373 6.895-3.349 9.36-6.348 3.488 0.841 6.821 1.929 9.907 3.235-12.633 9.763-2.212 6.576-23.515 7.32-1.122-0.26-2.293-0.626-3.669-1.148 2.141-0.855 4.294-1.695 6.122-2.407 1.645 0.888 3.618 1.87 5.788 2.433l0.03-0.058c-1.29-1.077-2.639-2.047-4.023-3.027zm2.381-74.419c-0.939 0.399-1.795 0.776-2.603 1.147 1.868-3.282 3.353-6.812 5.524-9.9 0.993 0.646 2.015 1.294 3.005 1.922-1.738 2.582-2.799 5.651-5.932 6.828l6e-3 3e-3zm71.51 47.973c0.118-0.144 0.901-1.077 1.62-1.917 0.187-0.05 1.099-0.298 1.469-0.397-0.894 1.256-1.584 2.483-1.424 4.009 2.297-0.822 2.941-2.962 3.356-5.35 1.831-0.299 3.363-0.457 4.805-0.495-1.543 0.909-3.656 2.133-5.116 3.043 0.012 3e-3 1.915 0.46 2.002 0.481-1.191 0.782-2.39 1.773-3.666 3.023-1.908 0.777-4.031 1.406-6.491 1.924-1.191-0.089-2.368-0.203-3.624-0.32 0.39-0.951 0.816-1.968 1.286-2.974 0.099-0.072 0.54-0.395 0.615-0.449 1.401-0.2 4.531-0.53 5.168-0.578zm-1.969-5.603c0.545-0.906 1.154-1.869 1.722-2.766 9.224 0.574 6.028 3.748-1.722 2.766zm15.375 16.714c-0.025 0.665-0.102 2.519-0.153 3.621-1.06 0.827-2.252 1.542-3.644 2.186-0.278-0.088-0.849-0.256-1.118-0.341 0.226-1.239 0.324-2.597 1.074-3.662 1.164-0.822 2.564-1.276 3.841-1.804zm-1.115-11.876c0.528-0.453 1.019-0.852 1.498-1.215 0.931-0.338 1.859-0.647 2.762-0.923-0.417 1.243-1.014 2.136-1.827 2.724-0.557-0.073-1.602-0.219-2.115-0.293l-0.318-0.293zm-10.273 15.136c1.75-0.396 3.522-0.738 5.416-1.045-0.137 1.186-0.261 2.367-0.387 3.573-4.282-1.024-8.685-1.827-12.831-3.302 6.105-2.231 10.659-4.581 14.324-7.391 0.3 0.027 0.877 0.079 1.196 0.108-0.809 2.29-2.522 4.055-4.956 5.105l0.019 0.063c1.513-0.283 2.694-0.483 3.819-0.648-1.136 2.578-4.336 2.504-6.622 3.475l0.022 0.062zm-61.793 15.938c2.039-2.488 4.574-5.559 8.125-6.65 1.281 0.76 2.726 1.239 4.078 1.846-0.94 2.305-3.44 3.594-5.399 4.754-2.471 0.076-4.926 0.068-6.804 0.05zm5.337 1.34c-1.307 1.283-2.594 2.731-4.363 3.363-1.832-0.353-3.347-1.532-4.931-2.519 3.054-0.648 6.236-0.716 9.294-0.844zm10.134-5.142c-0.395 1.039-0.775 2.071-1.131 3.069-2.974 0.292-1.105 0.189-4.112 0.312 1.466-1.5 3.117-2.936 5.243-3.381zm33.682 29.699c-0.634 0.695-1.203 1.308-1.736 1.873-0.836 0.365-1.694 0.715-2.524 1.054-6.327 1e-3 -12.687 0.322-19.111 0.269l-0.01 0.065c4.531 1.387 9.385 0.706 14.025 1.383-7.617 1.999-15.656 2.668-23.282 3.583l1e-3 0.066c7.118 0.501 14.226-0.993 21.226-1.708-4.54 2.531-9.381 4.534-13.975 7.007-5.918-2.77-11.542-6.149-15.785-8.787 0.75-2.281 2.023-4.374 3.149-6.223 13.065 2.564 19.869-2.062 38.022 1.418zm-34.741-123.45c-1.17 1.648-2.306 3.321-3.55 4.909-6.258 1.467-12.607 9.077-14.48 6.379 6.454-9.576 0.12-2.295 18.305-24.409l0.509 1.206c-2.906 5.095-7.581 9.148-9.85 14.643l0.056 0.034c8.122-9.701 7.717-11.638 14.221-15.205-1.497 4.239-4.304 7.956-5.211 12.443zm1.628 42.297c-1.053 0.788-2.113 1.553-3.104 2.265-0.264-0.155-0.765-0.45-1.121-0.659 0.822-1.744 2.531-2.786 4.041-3.909 0.046 0.554 0.142 1.713 0.184 2.303zm-5.771-36.315c-0.699 1.803-1.691 3.501-2.948 5.048-1.767 0.966-3.879 2.037-6.154 2.676-0.458-0.143-1.306-0.406-1.758-0.541 2.811-3.394 6.995-5.218 10.86-7.183zm-15.759 4.385c-0.854 0.507-1.928-0.063-2.593-0.709 0.027-2.269 7.933-13.831 12.515-18.968 0.079 0.425 0.251 1.331 0.303 1.614-9.283 9.874-7.333 13.831-10.225 18.063zm26.187 59.242c0.932-0.021 1.873-0.034 2.875-0.042l0.014-0.063c-0.336-0.168-0.987-0.503-1.361-0.697 3.348-2.708 7.841-2.348 10.259-1.878-0.627 1.041-6.462 7.113-11.484 6.896-1.04-1.042-0.182-2.859-0.303-4.216zm32.628 7.667c2.391-0.965 4.71-2.167 7.116-3.069v-1e-3l0.592-0.173c1.229 0.062 2.467 0.198 3.666 0.332-6.47 2.903-7.539 6.458-16.269 4.288 1.626-0.446 3.241-0.838 4.832-1.355l1e-3 4e-3c0.046-0.019 0.03-0.013 0.063-0.023l-1e-3 -3e-3zm-18.037-31.55c-0.557-0.014-1.602-0.054-2.152-0.068 2.65-3.161 4.924-6.722 7.905-9.606 4.433-1.768 5.653-5.97 12.159-8.646-0.778 10.471-6.879 9.099-17.912 18.32zm4.928 39.203c-0.562 0.949-1.09 1.834-1.634 2.809-1.666-0.399-3.513-0.836-5.305-1.368 3.753-0.858 3.04-5.671 9.683-5.541-1.093 2.257-2.772 3.89-5.255 3.769-0.249 0.404-0.539 0.861-0.74 1.188 0.995-0.384 2.019-0.672 3.251-0.857zm-10.012-13.658c1.816-1.673 3.892-3.038 5.692-4.733 1.253-1.569 1.881-3.914 4.12-4.369-2.477 4.308-5.351 8.305-8.547 11.88-1.263-0.098-2.615-0.208-3.976-0.349 0.91-0.551 1.943-1.109 2.781-1.518-0.022-0.343-0.05-0.696-0.07-0.911zm2.62-4.678c-1.165-0.303-2.406-0.642-3.609-1.064 2.29-1.806 3.618-3.321 7.79-3.339-1.162 1.486-2.53 2.927-4.181 4.403zm-3.806-20.425c3.633-5.825 5.555-8.377 8.588-10.056 0.423-0.045 1.513-0.156 1.763-0.183-7.173 11.991-7.497 9.957-10.351 10.239zm4.258 58.866c1.738 0.267 4.354-0.532 4.967 1.681-4.112 0.965-8.192 1.761-12.227 2.793-1.763-1.558-4.037-0.589-6.054-1.083 9.777-3.014 6.381-2.335 13.314-3.391zm7.953 41.561c-8.204 0.147-15.917-4.187-20.889-6.52-0.121-0.308-0.334-0.824-0.439-1.094 0.411-0.072 1.3-0.222 1.709-0.295 2.31 2.303 5.362 3.426 8.561 3.319 3.722 1.437 7.388 3.1 11.058 4.59zm-21.569-7.856c-0.964 0.117-1.922 0.235-2.88 0.352-3.819-2.08-8.011-3.469-11.788-5.607 0.09-0.372 0.291-1.209 0.376-1.593 2.087 0.178 13.068 5.486 14.292 6.848zm17.097 8.89l0.166 0.452c-4.229 1.094-9.247 1.781-13.57 2.059-3.599-2.415-4.014-1.414-16.477-5.602 5.788-4.396 10.162-3.442 29.881 3.091zm15.769 15.144c-3.669 1.71-36.106 1.419-38.24 0.639 5.442-0.96 32.788-1.519 38.24-0.639zm-12.199-75.171c0.806-1.3 1.737-2.539 2.619-3.777 3.191 0.202 6.085-1.261 8.999-2.189 3.032 0.977 6.116 1.82 9.158 2.783-1.231 0.594-2.44 1.169-3.679 1.686-5.595 0.566-11.399 1.555-17.097 1.497zm5.526-169.32c0.039-0.302 0.106-0.793 0.145-1.06 3.743-2.059 6.966-5.272 11.103-6.557-4.887 4.999-6.684 4.598-11.248 7.617zm3.266 103.91c-2.886 1.549-21.694 16.184-23.515 18.432-0.749-0.646-0.819-1.569-0.82-2.464 3.838-2.333 6.643-5.78 10.709-7.976l-3e-3 -1e-3c4.647-2.454 8.467-6.532 13.629-7.991zm-35.667-55.143c4.648-3.806 9.455-9.559 22.952-19.343-6.007 9.216-21.393 19.564-22.952 19.343zm6.726-2.559c-0.767 1.143-1.702 2.244-2.179 3.556 1.427 0.061 2.437-1.245 3.793-1.777-7.017 11.855-13.303 12.77-22.098 18.625l0.035 0.056c0.332-0.19 14.337-8.286 14.708-8.383-9.912 14.449-7.346 3.878-24.216 32.354-1.968-0.144-3.719-1.179-5.532-1.938 3.242-6.453 14.885-25.388 21.796-31.629 5.34-2.591 8.536-8.053 13.693-10.864zm-25.876 50.893c2.089-1.341 4.298-1.855 6.396-1.49-1.267 1.957-6.257 5.658-8.551 5.317 0.667-1.326 1.459-2.6 2.155-3.827zm10.043 0.892c-0.681 1.813-1.603 3.545-2.317 5.339-2.299 0.096-4.536-0.753-6.653-1.446 1.64-1.906 7.427-5.887 8.97-3.893zm2.405 0.539c-0.354 1.936-0.955 5.109-3.546 5.63 0.738-2.029 1.1-5.095 3.546-5.63zm2.817 59.412c1.141-0.279 2.349-0.325 3.444-0.417-1.541 2.614-3.473 4.842-4.557 7.78 2.648-1.879 4.084-4.462 5.913-7.115 0.285-0.163 0.818-0.475 1.12-0.651 0.379 1.739 0.88 3.464 1.139 5.226-0.949 1.46-2.444 2.466-3.822 3.529-3.406 0.436-6.694-1.213-9.91-2.167 1.953-2.159 4.112-4.399 6.673-6.185zm-7.553 5.891c-1.474-0.503-3.035-1.09-4.638-1.742 2.377-1.136 4.524-1.789 6.555-1.987-0.664 1.333-1.34 2.63-1.917 3.729zm-6.324-8.363c-1-0.75 0.53-2.783 7.583-0.721-2.289 1.28-5.023 0.891-7.583 0.721zm-1.574 25.991c-1.314 1.016-2.467 1.885-3.693 2.821-1.955-0.784-4.049-1.603-6.012-2.609 3.152-0.993 6.476-0.588 9.705-0.212zm-0.256 23.009c1.158-0.632 2.223-1.444 3.29-2.22 0.274 0.014 0.83 0.041 1.101 0.048 1.275 1.102 2.593 2.241 3.469 3.722-3.455 3.97-7.92 6.978-11.97 10.25l0.039 0.054c1.983-1.256 4.032-2.767 6.262-4.618 2.121 0.754 4.244 1.656 6.347 2.529l0.028-0.06c-1.915-1.009-3.947-1.85-5.688-2.541 3.121-3.285 6.552-6.311 9.741-9.548 1.485 0.025 2.745 0.048 3.978 0.049-1.086 2.494-2.012 5.111-3.699 7.26-0.969-0.867-1.971-1.762-3.005-2.619l-0.047 0.046c0.969 1.237 2.017 2.406 2.824 3.29-3.395 5.502-6.401 9.358-9.744 12.498-2.753-1.086-5.67-1.808-8.365-3.016l-0.031 0.059c2.458 1.476 5.271 2.236 7.857 2.968-0.885 2.116-2.66 3.646-4.232 5.211l0.046 0.048c5.124-4.66 9.088-8.637 12.476-12.516 3.641 2.008 7.545 3.705 11.347 5.368-0.32 0.347-1.016 1.096-1.335 1.445 0.559-0.135 1.074-0.257 1.642-0.377-0.132 0.229-0.337 0.586-0.448 0.788-7.407 0.154-2.016 0.458-12.784 3.314l1e-3 0.064c1.595 0.34 16.022 4.647 17.414 6.271-3.171 0.307-28.4-0.309-55.173-11.645 3e-3 0 28.6-16.089 28.601-16.089 0.029-0.015 0.033-0.018 0.059-0.031l-1e-3 -2e-3zm24.343 45.874c2.736-1.492 18.332 3.343 28.242 4.423-2.91 1.039-14.249 1.661-15.25 1.557-4.422-1.767-8.672-3.987-12.992-5.98zm6.756-0.869c10.439-2.365 36.461-1.743 43.272 0.634-14.046 4.469-18.289 5.29-43.272-0.634zm37.244-58.952c4.789-1.413 9.663-2.952 14.76-4.559-0.846 2.127-3.222 3.081-4.875 4.499-1e-3 0-0.386 0.034-0.387 0.035-3.121 0.124-6.36 0.664-9.498 0.025zm14.462-59.382c-4.349 1.075-8.616 2.534-12.953 3.666-0.012-0.638-0.021-1.42-0.028-2.059 2.998-1.047 5.874-1.407 8.592-1.226v-1e-3c1.66 0.094 3.267-0.387 4.802-1.055-0.105 0.171-0.314 0.516-0.413 0.675zm-6.738-142.49c-1.215 0.846-2.461 1.662-3.709 2.504-1.232 0.188-2.448 0.34-3.626 0.487 4.971-4.568 4.839-3.299 11.644-7.381-0.225-0.427-0.667-1.273-0.667-1.273 1.731-0.624 3.484-1.307 5.211-2.029 0.212 0.155 0.539 0.401 0.758 0.561-3.091 1.799-8.601 6.197-9.611 7.131zm13.66 342.78c2.943-0.795 6.043-1.232 8.894-1.764l2.36 0.212c-7.425 2.572-9.642 5.376-17.339 5.171 0.433-0.541 0.796-0.986 1.139-1.396 1.953-0.578 3.571-1.305 4.946-2.223zm2.098-177.61c0.97-2.506 2.607-3.561 4.343-3.676-1.393 1.478-2.897 2.857-4.274 4.415-0.016-0.171-0.052-0.574-0.069-0.739zm9.844 237.28c2.15-0.675 4.355-1.215 6.557-1.604-1.982 1.978-4.216 3.715-6.247 5.669-2.102 0.281-4.16 0.707-6.122 1.258 1.927-2.116 3.829-3.86 5.812-5.323zm-23.157 5.012c0.741-0.851 1.471-1.68 2.233-2.469 4.341-1.168 14.183-2.096 18.2-4.129-3.686 4.159-0.219 1.331-20.433 6.598zm23.698-411.86c2.459-1.033 4.556-1.767 6.585-2.297 2.089-0.338 4.544-0.602 6.97-0.041-2.631 0.758-5.012 1.434-7.412 2.167-1.834 0.316-3.847 0.37-6.143 0.171zm1.996 122.53c-0.781 2.651-1.62 6.141-1.222 9.695-0.344 0.357-0.698 0.739-1.142 1.233-0.295 0.066-0.821 0.196-1.128 0.264-0.595-0.122-1.68-0.356-2.293-0.481 1.419-1.467 2.643-2.896 3.74-4.368l-0.04-0.05c-1.024 0.47-1.996 0.945-2.996 1.418 0.494-1.903 0.997-3.7 2.407-5.069-0.12-0.252-0.92-2.002-1.045-2.272-0.491 0.733-0.915 1.375-1.363 2.183-0.102-0.963-0.234-1.838-0.366-2.777 0.177-0.227 0.364-0.442 0.547-0.65-0.03 0.441-0.127 1.776-0.147 2.081 0.883-0.675 1.775-1.326 2.693-1.977 0.799 0.265 1.624 0.532 2.355 0.77zm-17.262-133.49c-2.539 1.229-13.25 3.722-16.589 3.212 4.892-1.632 9.65-2.758 14.391-3.787 0.669 0.162 1.388 0.351 2.198 0.575zm-32.033-19.343c-0.896 0.028-2.135-0.034-3.408-0.04 8.135-4.108 17.029-6.847 25.384-9.824-9.071 6.264-16.083 6.959-21.976 9.864zm12.714 23.596c0.316 0.197 0.956 0.599 1.72 1.086 6.85-1.142 9.345-1.994 13.351-2.191-3.49 1.714-6.692 3.501-10.484 4.611 1.095 0.439 2.043 0.831 2.043 0.831 3.023-1.008 6.062-3.967 9.556-2.914-10.372 4.377-17.105 12.419-28.459 12.419 0.418 0.401 0.682 0.645 1.126 1.062-2.096 0.961-4.306 2.019-6.298 3.438l0.026 0.059c3.302-0.734 5.999-3.22 9.442-3.456-1.961 2.339-2.656 1.678-12.486 8.7-3.718 2.717-9.041 2.587-12.655 6.142 2.314-0.629 3.82-1.072 5.514-1.458-3.393 3.649-8.778 4.312-12.566 7.47-0.748-0.071-1.482-0.112-2.116-0.143 4.455-3.527 14.375-14.143 26.11-20.635 2.103-0.912 3.882-2.347 5.603-3.735 2.964-2.35 7.183-2.336 9.721-5.513-14.251 4.943-9.784 5.645-17.544 7.319-0.028 0.481-0.045 1.08-0.058 1.556-19.409 12.96-22.237 18.525-27.129 22.124 18.971-27.437 6.083-6.624 16.871-23.981 3.812-2.032 8.497-1.974 12.009-4.635 3.195-2.279 9.003-5.411 16.703-8.156zm-83.486 101.88c0.611-1.594 6.487-11.944 10.241-15.403-0.025 2.474-7.527 13.11-10.241 15.403zm18.027-37.428h-2e-3c-0.012 0.012-0.063 0.056-0.076 0.067h0.011c-1e-3 0-10.544 13.88-10.545 13.881-0.033-0.134-0.25-1.007-0.32-1.285 0.475-0.83 4.87-7.198 11.371-15.706 0.456 0.173 1.317 0.543 1.715 0.72 2.22-2.489 4.991-4.699 8.506-6.519-2.891 3.663-7.211 5.814-10.66 8.842zm-21.725 43.497c3.46 1.248 3.533 2.044 4.533 2.562 1.381 0.326 3.431-0.108 4.168 1.334-1.067 3.323-2.133 6.214-4.296 8.502 0.327 0.13 0.892 0.372 1.194 0.505 0.962-2.971 2.625-5.941 4.17-8.554 2.028 0.649 3.856 1.294 5.587 1.971-5.323 12.821-8.707 14.354-10.607 16.513l0.037 0.053c0.971-0.368 1.942-0.735 2.92-1.103-0.167 0.95-0.38 2.189-0.57 3.456l0.062 0.021c2.8-5.25 1.428-5.118 7.782-9.389 0.276 0.111 0.842 0.331 1.12 0.438-1.134 1.803-1.879 4.155-4.005 5.033l0.016 0.064c0.442-0.042 1.279-0.127 1.745-0.178-0.876 2.791-2.07 5.548-2.628 8.462-1.834-0.471-3.604-1.069-5.264-1.778 0.324-0.701 0.62-1.332 0.904-1.926l-0.053-0.038c-0.587 0.559-1.256 1.192-1.807 1.73-4.168-1.764-9.22-3.545-13.75-5.076 3.99-12.244 1.346-7.429 8.742-22.602zm-7.818 24.247c7.002 2.491 14.24 5.068 21.098 8.363 0.531 0.575 1.01 1.111 1.465 1.637-4.897 2.205-14.988 6.074-20.307 7.213-2.347-0.479-4.488-0.84-6.542-1.105 0.439-4.694 1.389-9.734 2.986-15.854 0.243-0.05 0.669-0.134 1.3-0.254zm21.865 6.775c-0.899-0.354-1.8-0.697-2.641-1.015 1.203-4.117 2.682-8.429 5.32-12.103 2.807-0.817 6.008-0.356 9.786 1.415-1.728 4.125-9.281 9.889-12.465 11.703zm14.775-9.547c-1.13 2.316-9.047 10.928-11.318 10.928-0.466-0.18-1.238-0.493-1.693-0.676 4.606-3.903 8.865-7.259 13.011-10.252zm-0.094 18.393c1.075 0.528 2.205 1.089 3.455 1.714-0.493 0.194-0.944 0.378-1.375 0.562-0.686-0.229-1.409-0.456-2.105-0.675-0.547 0.919-1.018 2.017-1.329 3.2 0 0 2.358-0.26 2.367-0.261-0.208 0.818-0.423 1.639-0.607 2.459-1.442 1.197-2.991 2.449-4.681 3.51 1.159-2.05 2.608-3.605 3.853-5.69-3.214 0.778-3.919 4.178-6.099 6.091-1.073 0.438-2.278 0.304-3.413 0.414 2.079-4.785 7.304-6.957 9.934-11.324zm-9.834 15.858c-0.823 1.567-2.334 2.598-3.58 3.809-4.313 3.833-6.629 3.369-8.705 6.152-0.273 0.019-0.801 0.057-1.112 0.084 5.069-7.537 8.065-6.247 13.04-10.518l0.357 0.473zm-23.633 36.666c-4.066-0.093-7.984-1.085-11.988-0.478-6e-3 -0.382-8e-3 -1.213-0.013-1.545 1.399-0.695 2.688-1.313 3.967-1.969 2.661 1.225 5.456 2.452 8.034 3.992zm19.658 24.669c-1.075 0.808-2.339 1.699-3.783 2.227-1-0.248-2.898 0.065-2.805-1.318 0.193-0.139 1.359-0.973 1.596-1.143 1.504 0.049 3.093 0.124 4.992 0.234zm-7.357 3.182c-1.14 1.52-3.088 2.002-4.744 2.716l0.022 0.062c2.054-0.564 4.288-0.814 6.244-1.808 2.764-0.033 4.648-2.936 7.457-2.53-5.224 3.513-10.562 7.318-16.753 8.863l-8e-3 3e-3s2e-3 0-0.103 0.026l0.013 5e-3c-4.749 1.446-8.966 4.751-13.991 5.02-6.449-3.23-7.844-4.029-9.414-5.271 19.396-4.899 30.735-8.394 30.735-8.394 0.132 0.331 0.403 0.976 0.542 1.308zm-18.229 15.534c4.475 2.695 23.043 11.214 40.681 13.917l-8e-3 7e-3c0.022 2e-3 0.073 4e-3 0.092 7e-3l1e-3 -1e-3c1.527 0.101 3.129 0.172 4.805 0.334-0.982 0.131-1.818 0.389-2.62 0.758 1 0.375 1.849 0.694 3.367 1.209-4.935-0.094-9.788 1.55-14.716 1.841 0 0-19.364-8.547-39.293-15.029 2.417-1.279 5.004-2.303 7.691-3.043zm70.909 36.838c4.708-1.277 21.011-0.686 24.265 0.509-0.386 0.25-1.086 0.693-1.43 0.907-0.548 0.084-1.829 0.26-1.829 0.26s1.088-0.215-16.557 0.07c-1.448-0.512-2.98-1.07-4.449-1.746zm21.585 25.819c0.556-0.643 0.742-0.864 1.52-1.74 2.935-0.583 8.175-1.884 10.448 0.061-5.244 1.412-13.425 2.45-14.437 2.49-0.251-0.067-1.586-0.423-1.826-0.487 3.556-0.29 3.295-0.255 4.295-0.324zm-2.404 88.165c2.366 0 4.546 0.097 6.659 0.298-5.075 1.905-15.382 2.044-21.444 1.02 4.849-1.153 9.91-0.618 14.785-1.318zm7.244 28.307c-2.334 1.482-5.635 2.121-6.678 5.024-2.715 0.05-5.368 0.071-7.974-0.184 1.919-1.893 4.346-3.155 6.682-4.428 2.559-0.181 5.167-0.316 7.97-0.412zm22.024 24.965l2e-3 3e-3c1.687-2.399 4.302-4.17 6.545-5.9-0.132 2.847-10.735 10.389-10.336 13.423-1.059 0.527-2.117 1.103-3.232 1.76-0.408 0.021-1.22 0.049-1.57 0.061 2.538-3.382 6.034-5.955 8.591-9.347zm10.407 11.768c-10.907 9.251-11.146 6.183-18.592 10.802 1.367-4.003 14.889-9.349 18.592-10.802zm7.6-546.03c-1.725 0.481-3.519 0.71-5.325 0.683-2.469-0.968-5.106-1.353-7.76-1.873 0.597-0.053 20.703-0.633 22.232-0.466-4.842 0.382-6.444-0.04-9.147 1.656zm-26.331-14.578l3e-3 -3e-3c-0.018-1e-3 -0.073-3e-3 -0.088-5e-3l-1e-3 1e-3c-1.662-0.068-3.196-0.101-4.885-0.161 3.943-1.012 8.079-0.412 12.078-0.563 2.463 0 5.055-0.776 18.484 1.773-8.49-1.137-17.083-0.157-25.591-1.042zm-43.92-12.169c10.419 3.14 12.572-0.911 23.805 3.388 3.174 1.278 6.692 1.572 10.443 1.885 0-1e-3 -0.178-1.349-0.178-1.35 1.424-0.164 2.653-0.298 4.037-0.463l-5e-3 -0.066c-6.109 0.206-12.521 0.163-17.92-2.761 0.03-5e-3 22.621 1.383 22.621 1.383-0.124 0.315-0.337 0.869-0.452 1.16-2.661 1.32-5.403 2.481-8.101 3.776-3.164-1.058-6.562-1.032-9.823-1.225 0 0-0.078-0.652-0.141-1.177-1-0.184-38.329 5.759-42.717 4.114 3.134-2.403 13.74-7.496 18.431-8.664zm-20.238 10.061c4.073 0.589 16.016-0.097 20.186-0.395-0.537 0.402-1.024 0.773-1.478 1.127-8.414 0.259-16.782 2.322-23.14 4.095-0.027-0.223-0.108-0.902-0.135-1.124 1.426-1.373 3.082-2.547 4.567-3.703zm-6.785 5.827c1.515-0.104 34.738-7.306 50.034-2.865-2.757 0.869-5.6 1.265-8.033 1.536v-1e-3c-2.247 0.055-4.534 0.112-6.61 0.999-7.284 3.071-29.29 2.369-35.563 5.901 4.675 0.218 19.458-2.998 22.468-1.416-21.101 4.613-38.836 19.458-42.962 21.547 1.72-4.455 14.358-19.941 20.666-25.701zm-12.278 11.04c-12.737 14.852-14.735 24.571-16.914 28.489-2.314 0.04-4.404 1.062-6.494 2.054 5.341-11.286 20.521-29.991 23.408-30.543zm-30.786 55.684c3.68-25.325 6.061-11.811 17.173-23.058 4.737-1.06 9.83-2.181 14.982-3.197 0.695 0.194 1.428 0.407 2.368 0.691-14.881 9.681-14.671 8.925-16.445 11.076 3.089-0.978 19.327-10.563 21.123-12.265 7.09-1.454 14.322-2.442 21.506-3.606 0.315 0.17 0.906 0.496 1.273 0.7-7.74 2.591-19.425 9.139-21.203 11.051-15.557 8.312-23.45 14.601-40.777 18.608zm50.941-16.072v1e-3c-1.396 0.329-2.924 0.724-4.078 1.009-0.172-0.102-0.487-0.298-0.693-0.427 4.793-2.245 9.749-4.562 15.06-5.851-0.098 0.347-0.268 0.937-0.361 1.244-3.419 1.298-6.16 3.287-9.928 4.024zm-14.897 21.486c-0.698 3.61-2.778 1.956-4.981 7.746-5.862 2.362-11.224 5.952-17.153 8.111 2.969-4.173 15.864-11.595 22.134-15.857zm-70.389 51.27c-0.125-0.591 9.059-9.913 11.78-10.382-0.696 1-11.061 13.791-11.78 10.382zm4.643-0.13c4.321-5.628 9.849-11.275 24.675-22.104 0.101 0.396 0.344 1.301 0.457 1.724-7.353 8.303-7.154 10.228-10.41 11.545v1e-3c-3.561 1.605-7.147 3.563-9.901 6.369 0.166 0.128 0.73 0.56 0.893 0.693 2.311-1.126 4.28-2.612 6.574-3.568-1.92 4.973-7.904 4.361-12.288 5.34zm12.974-2.782c1.764-3.09 1.725-2.993 1.725-2.993 1.898-3.369 2.005-2.106 18.876-10.621 0.097 6.884-15.239 10.441-20.601 13.614zm20.433-9.675c5.126-7.592 5.715-6.473 14.354-11.704-0.134 1.335-5.572 8.399-14.354 11.704zm29.2-25.755c1.977-1.339 3.482-2.33 3.96-2.624l1.178-0.12c-1.81 2.555-18.03 14.849-20.932 14.856 0.526-1.06 4.119-3.862 8.111-6.747-14.028 9.704-30.93 20.877-36.139 22.233 6.132-16.719 37.674-29.672 49.119-34.215 2.49-0.957 4.979-2.292 7.69-2.694-0.332 0.273-5.666 4.155-12.987 9.311zm17.179-12.743c-2.784 1.136-6.77 2.424-16.428 6.515 0.575-2.223 28.826-21.267 30.084-21.868-2.888 4.561-11.576 10.608-13.656 15.353zm17.811-10.165c-2.728 1.649-5.639 3.213-7.219 6.088-1.863 0.775-3.693 1.72-5.698 1.995 2.15-2.311 23.81-22.091 24.72-22.817 3.889-1.243 7.563-3.212 11.089-4.993 2.202-0.479 4.5-0.888 6.686-1.629 3.862 1.023 7.649-1.284 11.545-0.956-6.967 5.047-24.661 5.026-30.765 10.397 9.363-1.465 16.911-5.508 20.582-4.311-2.037 1.456-4.444 2.962-7.276 2.653-0.025-1e-3 -0.076-7e-3 -0.101-0.01l8e-3 9e-3c-0.119-2e-3 -1.603-0.02-1.603-0.02-4.081 4.274-18.392 8.216-21.968 13.594zm40.114-17.586c-3.334 2.242-5.062 6.015-7.03 9.328-13.049 7.062-9.974 4.078-27.933 10.134l-0.91-0.698c6.356-2.805 12.8-6.288 19.695-10.644l1e-3 2e-3c0.035-0.024 0.039-0.027 0.06-0.041 0.653-0.444 1.552-1.05 2.227-1.472 1.32-0.838 2.727-1.672 3.988-2.688 1.144 2.697 0.501 1.186 0.923 2.186 3.184-1.806 5.263-5.331 8.979-6.107zm-31.554 25.097c14.683-7.184 12.406-5.83 14.369-8.49 7.681-2.893 15.896-4.433 23.848-6.406-0.45 0.779-0.902 1.591-1.377 2.341-4.357 2.644-9.06 4.503-12.672 5.828-6.362 0.302-22.34 7.323-25.287 10.721 3.258-0.328 5.623-2.2 8.618-3.015-0.349 0.759-0.698 1.519-1.047 2.285-0.115 0.053-0.782 0.367-1.045 0.489v-1e-3l-0.045 0.022-0.02 9e-3v1e-3c-1.187 0.583-14.896 7.892-16.007 8.617-0.412-0.165-0.977-0.382-1.359-0.534 8.781-9.091 9.35-7.387 12.024-11.867zm-21.588 25.333c2.968-2.287 21.926-17.854 27.935-17.073-5.2 3.239-17.084 10.294-20.688 14.689l0.039 0.051c5.258-2.355 9.508-6.599 14.962-8.603 0.018 0.365 0.05 1.238 0.067 1.569-4.671 3.365-9.86 5.962-14.663 9.097-2.373-0.294-4.459 0.461-5.875 2.126-0.646-0.365-1.149-0.653-1.825-1.03 0.013-0.191 0.033-0.597 0.048-0.826zm-43.906 38.565c-0.222-0.06-0.694-0.188-0.973-0.258 2.37-2.278 13.378-12.445 17.273-13.466-5.343 5.842-4.22 5.414-16.3 13.724zm13.751-1.17l2e-3 1e-3c-5.099 3.693-8.566 9.186-13.346 13.165 0.82-2.412 6.878-16.533 12.961-18.602-0.951 1.389-1.95 2.603-2.952 3.788 2.084-0.715 6.853-8.567 12.554-7.906-3.229 3.076-5.644 6.862-9.219 9.554zm12.346-13.676c-3.375 0.641-5.521 3.871-8.94 4.414 5.53-6.039 11.51-10.88 17.775-14.392 0.059 0.407 0.169 1.137 0.231 1.532-3.094 2.696-6.07 5.624-9.066 8.446zm8.282 18.475c3.283-2.501 3.344-3.063 3.766-4.825 0.96-4.012 6.025-4.951 11.103-14.362 1.789-1.972 3.968-3.482 5.879-4.705-0.432 2.018-7.693 13.379-12.789 16.96l5e-3 2e-3c-1.368 0.978 0.136-1.012-23.064 29.462-0.243-0.265-0.676-0.756-0.906-1.021 0.53-1 9.836-16.801 16.006-21.511zm-21.427 23.201c3.546-1.98 4.709-6.278 8.023-8.464-1.961 3.837-5.446 11.374-9.702 10.798 0.559-0.851 1.161-1.656 1.679-2.334zm-2.758 4.252c1.335-0.222 2.487-0.418 3.622-0.611-2.419 2.747-3.608 4.121-2.13 4.367 1.786-1.34 3.189-2.805 4.86-4.382-0.467 1.491-0.864 2.955-0.734 4.453-2.385 2.033-3.844 4.772-5.254 7.422-5.549 10.419-14.044 14.001-19.677 21.14-0.096-0.167-0.322-0.568-0.412-0.721 3.982-10.89 16.455-25.521 19.725-31.668zm-22.158 58.538c-1.391-0.978-15.88-5.145-16.894-5.44 2e-3 -2e-3 13.713-10.257 13.713-10.257-0.133 1.512-0.285 3.024-0.397 4.54l0.064 0.015c1.753-4.193 0.759-3.503 3.091-8.47 1.358-1.015 2.652-2.361 4.345-2.756 3.101 0.902 5.991 2.49 8.872 3.96-4.004 4.569-9.15 8.546-11.656 14.255l0.051 0.039c2.395-1.89 3.434-4.663 6.363-6.197 0.845-1.774 1.959-3.407 3.504-4.633 0 0-6.268 18.245-6.269 18.247-0.39 0.142-1.142 0.416-1.529 0.556-19.874-6.902-62.104-13.644-63.736-14.172 8.944-2.703 58.731 10.186 60.478 10.313zm-30.899 23.656c-1.119-0.372-2.258-0.816-3.188-1.181l2e-3 -1e-3c-8.174-3.053-16.205-6.38-31.569-21.12 0.02 0.422 0.065 1.311 0.092 1.745-9.243-4.248-16.859-7.586-23.958-10.503 2.657-1.845 23.217-3.322 26.894-3.273 7.475 6.356 29.687 3.396 67.102 16.21-1.962 5.45-2.295 11.337-3.461 16.943-47.938-1.97-34.768-5.818-55.988-13.364l-0.035 0.054c3.044 3.149 14.866 7.423 16.442 10.47 3.063 0.593 6.462 1.819 9.245 3.603-0.431 0.11-1.186 0.31-1.578 0.417zm5.77 0.653c-1.432-0.897-3.05-1.911-4.688-2.872 0.625-0.021 33.809 2.979 35.216 3.219-4.468 0.657-22.662 2.007-30.528-0.347zm14.388 7.833c-1.946-0.135-3.892-0.49-5.749-0.824 1.285-0.053 2.661-0.182 4.31-0.409 14.751-2.107 25.345-3.877 34.156-6.272 0.264 0.167 0.932 0.582 1.23 0.769-6.083 2.323-24.661 6.526-33.947 6.736zm30.433-3.101l2e-3 1e-3c0.021-0.014 0.039-0.024 0.065-0.039l-4e-3 -2e-3c2.41-1.682 5.182-2.775 7.334-3.54 1.456-0.091 2.933-0.119 4.391-0.084 0.066 0.108 0.422 0.688 0.452 0.737-2.038 1.017-3.606 1.997-4.934 3.082l0.027 0.058c2.963-0.599 5.529-2.227 8.359-3.337-6.2 11.628-3.996 5.519-18.304 7.942-1.077 0.144-2.362 0.318-3.625 0.466-1.504-0.234-2.774-0.397-3.984-0.512 3.323-1.735 6.944-2.931 10.221-4.772zm6 9.799c-0.864 0.931-1.763 1.857-2.673 2.755-0.345-1.68-0.375-1.862-0.571-2.862-1.24 1.267-2.395 2.593-3.726 3.708-4.745-0.629-9.082-2.897-13.581-4.536 1-0.106 17.78 0.06 20.551 0.935zm-23.841-0.695c0.798 0.323 15.109 6.152 15.713 6.766-1.262 1.046-2.854 1.495-4.258 1.833-3.832-2.589-7.839-5.104-11.461-8.035l6e-3 -0.564zm-1.993 0.913c0.7 0.252 1.322 0.492 1.9 0.734 2.972 3.095 6.883 5.067 9.97 8.003-3.923-1.19-12.679-4.687-11.87-8.737zm-0.629 7.079c4.884 0.543 5.415 0.62 9.457 2.156-0.242 0.385-0.883 1.409-1.12 1.795 1.718-0.3 3.401-0.365 5.086 0.101-1.968 2.064-4.682 3.075-7.082 3.966-1.985-0.632-4.1-1.136-6.466-1.54-8e-3 -2.151 0.034-4.329 0.125-6.478zm10.226 9.969c1.855-0.811 2.503-3.576 4.782-3.352-1.632 1.253-3.027 2.68-4.719 3.752-1.83 0.796-4.586 0.52-5.315 2.863-8.214 2.202-8.455 4.205-12.217 3.374 0.063-0.165 0.213-0.562 0.287-0.765 1.002-0.514 6.328-3.334 17.182-5.872zm-11.916-1.125c-5.933 0.847-11.76-1.09-17.411-2.371 3.075-0.343 16.947 0.388 17.411 2.371zm-17.066 2.1s2.643 0.467 16.61 0.163c-2.89 1.447-5.497 2.717-7.961 3.875-2.542-1.234-5.552-2.675-8.649-4.038zm-17.309 14.939c-16.227 2.611-46.491-2.977-54.294-9.336 1e-3 1e-3 54.293 9.336 54.294 9.336zm-55.529-7.657c10.073 3.808 20.105 9.147 31.087 10.263 1.572 0.273 6.149 0.479 9.602 2.02-7.054 0.606-29.155-1.838-40.689-12.283zm29.446 15.515c1.935-0.591 3.996-0.681 5.96-0.876 0.028-3e-3 0.043-5e-3 0.075-8e-3v-1e-3c2.628-0.264 29.869-3.411 34.541-5.421 3.731-0.424 7.088-2.271 10.547-3.551 0.408 0.129 1.179 0.38 1.59 0.511-17.68 5.634-34.47 12.905-52.713 9.346zm44.684-3.579c3.274-0.853 6.799-1.6 10.399-1.291-1.201 1.035-12.841 8.222-13.701 8.475-1.609-0.043-3.207-0.426-4.8-0.783l-0.024 0.061c1.31 0.745 2.275 1.476 3.039 2.292-4.985 0.092-4.458 0.07-6.568 6e-3 -0.383-0.409-0.848-0.905-1.237-1.312 1.002-0.431 12.529-7.202 12.892-7.448zm-23.278 9.739c4.365 0.609 8.749 0.393 13.165 0.796-3.122 1.731-6.861 0.349-10.232 1.052l-1e-3 0.064c0.012 3e-3 13.855 0.946 36.719 6.441-0.311 0.131-1.009 0.43-1.313 0.558-41.458-5.89-34.662-4.106-38.338-8.911zm15.932 13.412c-3.571-2.355-7.315-4.645-10.39-7.642 56.409 7.611 57.59 7.193 57.59 7.193-9.014 4.694-30.253 11.268-33.784 8.939-4.228-3.025-7.782-4.687-13.416-8.49zm5.366 11.721c2.323-0.319 4.604-0.486 6.887-0.802 2.779 3.116 7.284 3.465 10.421 6.017-5.296 0.103-5.545-1.51-17.676-4.224 0.119-0.317 0.256-0.692 0.368-0.991zm-19.811-0.028c-1.156-0.146-2.289-0.326-3.352-0.48-5.625-1.108-11.098-3.212-16.544-4.541 2.036 2.972 6.023 2.314 8.843 3.99-5.156 0.364-13.814-3.569-15.857-4.73 8.682-1.107 26.361 2.8 34.296 5.115-2.229 0.603-4.645 0.816-7.386 0.646zm30.722 7.825c-6.174-1.349-8.677-2.252-24.035-6.185 8.497-1.779 8.831 0.41 26.563 4.098-0.835 0.679-1.695 1.379-2.528 2.087zm-30.567 18.508c-1.894-0.243-3.852-0.494-5.52-1.527 46.04-15.619 32.067-19.131 74.217-0.995-0.296 0.289-0.849 0.822-1.157 1.116-7.165 0.573-29.841 2.724-36.54 5.732l0.014 0.063s27.516-3.823 41.316-4.839c0.72 0.44 1.428 0.906 2.032 1.31-2.378 0.378-4.294 0.482-6.027 0.326-0.95-0.361-22.487 5.124-23.365 5.477-12.781 3.554-5.536-1.613-44.97-6.663zm6.238 21.245c-11.925-2.026-53.297-9.921-63.33-16.631l0.407-0.667c31.841-6.216 26.242 5.292 63.265 15.523-0.095 0.477-0.259 1.328-0.342 1.775zm-41.383-20.932c15.553-1.304 64.075 9.751 65.09 9.999-0.695 0.459-21.356 8.6-21.534 8.642-6.971-0.934-39.933-15.616-43.556-18.641zm82.766 26.378c-5.578-0.773-11.331-0.795-16.872-1.935-5.976-3.346-8.334-1.487-19.824-5.329 1.977-0.885 19.927-8.26 24.506-7.839 1.439 0.57 3.111 0.897 4.067 2.238-1.353 0.198-2.731 0.553-4.102 0.458-0.966-0.477-1.767-1.228-2.609-1.894l-0.046 0.046c0.536 0.682 1.107 1.41 1.683 2.156-2.442 1.011-5.078 2.013-7.556 3.206l0.023 0.062c3.114-0.858 6.108-2.295 9.413-2.295 0.036 0.691 0.159 2.691 0.169 2.837 0.517 0.054 1.103 0.124 1.619 0.199 2.233 2.241 4.365 4.68 6.927 6.58l0.044-0.048c-2.18-2.412-4.739-4.491-6.729-7.074 9.209-2.654 3.663-6.517 38.662 9.512-6.562 0.636-24.908-0.533-29.375-0.88zm10.829 2.373c5.708 0.219 11.309 0.65 17.039 0.906-4.288 1.592-8.927 0.789-13.313 1.073l-1e-3 0.066c5.635 0.537 11.387 0.637 17.002 1.312-14.653 5.747-19.115-1.765-20.727-3.357zm9.594 15.209s-30.8 0.684-36.697-0.227c-0.079-0.446-0.407-2.253-0.41-2.267-4e-3 -1e-3 -1.415-0.256-1.418-0.257-3.044-2.864-5.634-6.01-7.703-9.351 1.009 0.03 41.068 2.215 42.577 4.151-1.801 0.275-3.62 0.384-5.443 0.447 3.527 2.495 7.127 4.213 10.382 6.745-0.314 0.183-1.063 0.627-1.288 0.759zm3.397-0.938c-2.967-1.743-6.118-3.613-9.175-5.64 1.979-1.346 2.755-2 11.441 5.552-0.526 0.019-1.784 0.071-2.266 0.088zm3.962-0.394c-2.772-2.474-6.141-4.218-8.82-6.789 2.868-0.669 29.356-2.822 41.613 4.213-2.396 0.28-4.87 0.412-7.254 0.624l-1e-3 0.066c6.662 0.753 7.394-0.813 14.692 1.319 0.631 0.423 1.215 0.84 1.782 1.27-11.278-2.195-39.488-0.308-42.012-0.703zm7.79 4.448c2.2-0.103 4.442-0.054 6.81-0.024 3.035 2.52 20.636 1.599 21.639 1.645 0.072 0.276 0.261 0.988 0.33 1.252-4.206 0.221-8.013 0.405-11.638 0.563l-0.01 0.064c3.468 1.32 7.232 0.528 10.689 2.166 3.633-0.545 6.963-2.398 9.981-0.66 0.473-0.272 1.517-0.844 2.191-1.185 1.249 0.029 2.421 0.078 3.579 0.15-1.559 1.249-3.509 1.843-5.322 2.484l0.011 0.064c4.827 0.054 6.37-3.218 18.483-1.646-1.006 0.233-21.299 4.463-26.428 5.159 1.821-1.345 3.797-2.097 5.443-3.819-4.02 0.845-6.589 3.709-10.115 5.273l0.015 0.063c3.581-0.176 7.109-1.185 10.66-1.118-1.829 1.637-4.358 2.033-6.508 3.089l0.014 0.063c3.101 0.035 5.687-1.643 8.395-2.881 0.431 0.696 0.864 1.371 1.294 2.055-3.109 0.632-6.212 1.878-9.444 1.756-8.111-2.705-23.064-9.484-30.069-14.513zm29.951 20.368c-1.005 0.374-17.846 4.912-19.998 4.913 0.6-0.598 1.151-1.126 1.681-1.605 6.031-1.231 12.065-3.458 18.317-3.308zm-16.541-1.146c0.44 0.117 0.969 0.261 1.414 0.375-4.157 0.635-8.608 0.15-12.268 2.605 1.626 0.134 3.481 0.196 5.104 0.23-1.157 0.422-2.048 0.757-2.973 1.08-2.604-1.021-5.708-1.172-7.799-3.156 2.497 0.153 15.521-0.959 16.522-1.134zm-32.904 6.469c-0.899-0.45-1.773-0.939-2.669-1.413 1.483-0.422 11.124-2.804 16.642-2.725 0.325 0.136 0.906 0.379 1.21 0.503 0.739 0.774 1.655 1.441 2.96 2.155-1.838 0.355-13.898 1.738-18.143 1.48zm-38.326 12.471c1.303-0.193 26.416-5.525 40.656-4.334-1.68 1.46-4.183 0.98-6.22 1.479l4e-3 0.065c1.528 0.157 3.361 0.269 5.073 0.796-18.702-1.602-28.477 7.937-39.513 1.994zm15.323 5.258c5.395-0.636 8.884-3.522 22.644-3.561-3.342 3.24-7.935 5.038-11.271 8.347-1.369-0.117-10.428-3.494-11.373-4.786zm35.285 15.359c-1.002-0.398-21.796-9.282-23.346-10.223 4.249-3.071 8.72-6.476 13.606-8.888 11.3-0.584 29.787 9.836 55.905 9.841 2.394 0 4.868 1e-3 7.29 0.323-2.472 0.993-19.077 6.064-21.051 7.818 1.001-0.083 33.526-6.222 39.745-5.158-1.295 0.456-2.589 0.894-3.852 1.303-9.193-0.382-57.137 9.461-58.137 9.544-3.406-1.433-6.683-3.24-10.16-4.56zm7.748 6.614c2.017 1.045 4.189 2.146 6.434 3.146-4.875-0.491-9.813-0.044-14.661-0.576 1.762-1.076 3.525-1.434 8.227-2.57zm-35.231 8.911c10.235-7.173 37.69-3.957 46.849-3.165-5.128 2.523-10.91 3.752-15.724 6.954-11.93 1.684-28.328-3.008-31.125-3.789zm9.868 6.39c3.091 0.376 6.168 0.602 9.566 0.892-3.874 0.939-7.821 0.056-11.666 0.774v0.065c3.802 0.712 7.727 0.535 11.548 0.825-4.307 2.129-8.476 4.606-12.703 6.941-5.736-2.134-10.527-6.87-14.244-10.223 5.817 0.103 11.676 0.635 17.499 0.726zm-6.944 11.718c-2.411-2.362-18.912-10.366-17.188-12.763 2.114 0.03 4.243 0.162 6.05 0.289 4.62 4.119 12.447 10.546 13.375 11.232-0.736 0.398-1.496 0.811-2.237 1.242zm2.223-0.062c1.709-0.488 11.732 5.97 12.733 6.888-2.04-0.65-11.122-5.025-12.733-6.888zm29.614 10.668c-0.463 0.842-0.881 1.56-1.356 2.457-8.741-3.493-24.559-13.557-25.56-14.361 19.017-12.265 18.983-8.107 41.19-5.576 1.393 0.16 2.833 0.326 3.771 1.443-4.31 0.595-8.712 0.304-13.044 0.479l-5e-3 0.065c4.181 0.871 8.672 0.347 12.698 1.865l-0.174 0.337c-2.239 0.802-17.926 11.626-18.927 12.298 0 0 1.379 0.973 1.407 0.993zm10.998 7.59c-3.166-1.449-6.916-2.094-9.552-4.413 14.637-2.125 13.222-1.169 19.879-1.016-3.034 2.517-7.118 3.146-10.327 5.429zm15.697-8.725c-0.707 0.205-15.733 2.554-16.235 2.63 2.835-5.335 18.489-15.495 23.911-18.548 0.051 0.118 0.924 2.14 0.955 2.211 1 0.023 3.42 0.024 5.816 0.29-2.599 1.039-14.645 2.511-20.831 8.684l0.033 0.055s2.991-1.959 23.047-7.601c0.745-6e-3 1.554-2e-3 2.52 0.012-2.836 1.107-16.576 9.018-19.216 12.267zm16.575 37.693c5.51 1.477 10.725-2.005 16.097-0.73-1.583 1.192-3.106 2.368-4.683 3.463-4.984 1.238-9.325 4.247-14.311 5.561l3e-3 -9e-3c-0.026 0.011-0.057 0.025-0.081 0.032l-1e-3 2e-3c-3.708 1.574-7.421 2.346-11.527 3.909 1 0.265 1.906 0.488 2.993 0.785-6.057 2.455-31.018 10.659-44.173 12.203 7.991-10.991 35.673-40.524 39.65-40.009-1.826 2.317-14.958 12.717-19.373 19.105l0.042 0.048c2.176-1.123 19.391-17.994 23.955-21.119l-0.029-0.059c-1.569 0.51-3.178 1.025-4.784 1.532 0.467-3.901 4.897-3.567 7.83-4.061 0 0 0.977-0.197 0.987-0.199-0.961 1.119-1.966 2.363-2.772 3.408 5.706 0.618 10.653-1.012 16.23-0.846-1.328 0.624-2.564 1.258-3.792 2.049 4.156 0.517 7.676-0.676 11.76-0.584-5.575 4.053-27.478 17.677-27.888 18.288 4.329-0.887 25.98-14.709 30.612-18.344 4.216 1.768 2.666 0.221 16.738 1.177-17.389 13.868-12.93 5.89-33.483 14.398zm-8.887 75.987c0.486-2.255 3.217-2.802 4.916-3.967-0.06 0.186-0.479 1.472-0.523 1.602 0.382-0.047 0.988-0.131 1.376-0.183-1.994 0.723-3.913 1.67-5.769 2.548zm24.903-18.198c-5.44 2.747-10.48 6.357-15.47 9.766-2.345 0.793-12.527 7.085-13.524 9.93-6.376 2.545-13.003 5.205-19.765 7.057 3.23-10.832 30.842-41.944 37.278-41.163-9.167 6.484-14.389 16.861-20.85 25.627l0.053 0.04c4.55-5.876 8.613-12.39 14.156-17.513-0.184 3.9-1.874 7.63-1.392 11.577-1.842 6.666-7.96 6.194-12.803 13.266l0.046 0.046c5.89-3.995 31.937-19.688 32.938-20.087-0.183 0.397-0.5 1.087-0.667 1.454zm-14.872 3.997c0.028-0.355 0.064-0.841 0.079-1.058 0.773-1.2 1.649-2.345 2.426-3.546l-0.045-0.046c-2.247 1.392-3.992 3.388-5.723 5.489 0.24-4.083 1.506-8.121 1.168-12.244 18.828-19.327 38.229-19.601 47.808-24.548 0.04 0.858 0.077 1.516 0.121 2.331 2.087-1.621 4.395-3.033 7.135-4.27 0.364 0.052 1.292 0.183 1.693 0.241-2.319 1.568-4.829 2.544-6.675 4.814 8.73-3.222 8.104-4.579 15.166-8.373h1e-3c0.024-0.014 0.042-0.023 0.073-0.04l-1e-3 -1e-3c0.154-0.088 12.39-6.171 12.446-6.19-15.271 13.848-44.251 19.457-75.672 47.441zm86.789-612.33c-1.238-0.381-8.4-5.831-44.464-10.562 3.715-5.544 46.352 9.988 47.353 10.309-0.91 0.083-1.999 0.184-2.889 0.253zm17.743-17.189c-3.036 1.517-7.893 1.114-11.326-1.521l-1e-3 -4e-3 -9e-3 -4e-3 -0.089-0.069 0.017 0.044c-3.193-1.256-6.903-1.411-9.528-3.847-2.09-2.224-5.68-1.751-7.619-4.118 1.877-0.09 3.652-0.074 5.341 7e-3 0.765 1.633 2.239 2.457 3.249 3.901 1.879 0.47 4.109 1.98 6.309 2.678-1.116-1.951-8e-3 -2.045-9.235-6.562 9.214 0.501 15.465 3.228 17.49 4.734-2.902-0.466-5.781-1.511-8.767-0.778 1.578 1.768 3.943 1.428 5.908 2.258 1.709 1.121 2.888 2.738 5.082 3.116-0.854-0.93-1.745-1.826-2.597-2.714 3.09 0.31 6.098 1.365 9.234 1.39-1.055 0.412-2.253 0.895-3.399 1.459-0.031 0.016-0.018 9e-3 -0.06 0.03zm10.102 1.511c-1.138-0.117-2.242-0.207-3.287-0.267-1.747-0.189-3.323-0.361-4.854-0.458 2.063-0.416 4.017-1.275 6.023-1.898 1.21 0.422 2.307 1.132 3.427 1.776-0.381 0.245-0.927 0.598-1.309 0.847zm-4.803-27.604c-0.233 0.155-0.656 0.442-0.835 0.561 1.16 0.228 3.433 0.66 5.934 1.323-3.344 1.888-10.296 3.579-21.578-0.285 1.167-2.424 2.337-4.534 3.574-6.446 24.83 2.069 37.59 0.27 43.191 0.447-2.713 1.489-5.772 2.259-8.445 3.832-14.212 1.727-10.486 3.001-21.841 0.568zm33.96 20.413c-1.061 1.165-2.224 2.384-3.552 3.451-2.75-0.986-5.949-1.111-8.269-3.049 3.895 0.174 7.843 0.207 11.821-0.402zm-10.812 16.572c0.18-0.656 0.376-1.317 0.567-1.956l0.52-0.1c1.209 0.594 2.399 1.346 3.748 1.678 1.145 0.291 2.329 0.517 3.508 0.76-0.562 0.194-1.112 0.385-1.673 0.59-0.021 0.231-0.079 1.026-0.131 1.936 2e-3 0 3.52 0.105 4.802 0.144l-0.479-1.351c1.363 0.18 2.849 0.443 4.661 0.824-5.087 2.033-3.857 5.119-15.523-2.525zm35.355-16.014c-5.313 0.211-10.89 0.149-16.065-0.086l-0.026 0.384c4.051 0.238 8.079 0.753 11.878 1.985-5.995 0.97-11.521-0.695-15.131-2.281 3.951-3.286-0.545-1.547 20.177-1.865 7e-3 0.172 0.02 0.544 0.027 0.705-0.168 0.227-0.635 0.855-0.86 1.158zm-15.645-3.524c5.156-3.737 8.276-1.055 17.614-0.911 0.522 0.421 0.784 0.633 1.363 1.1-2.527 0.472-15.809 0.87-18.977-0.189zm22.025-39.317c6.333-3.132 8.885-1.271 12.098-2.25 1.429-0.435 2.78-0.847 3.443 0.679-5.117 0.572-10.373 2.792-15.541 1.571zm2.536-5.359c3.054-0.366 5.971-0.588 8.572-0.194-0.891 0.503-1.805 1.034-2.721 1.489-1.354 0.057-2.457 0.076-3.473 0.056-0.8-0.424-1.592-0.892-2.378-1.351zm-7.552-2.755c3.547-1.613 28.469-2.039 30.41-0.53-5.686 1.009-25.961 4.24-30.41 0.53zm52.065 9.661c1.722-0.327 3.151-0.591 4.694-1.222-2.432-0.29-3.635-0.415-5.145-0.627 0.151-0.035 0.383-0.088 0.637-0.149 1.61 0.064 3.273 0.193 4.935 0.239-0.538 0.48-0.584 1.09 0.178 1.096 0.75 0.265 1.561 0.183 2.271 0.607-1 0.02-6.248 0.135-7.57 0.056zm11.478-8.53c0.784-0.324 1.583-0.652 2.367-0.978 5.118 0.272 10.052 1.405 15.488 2.755-11.018 0.531-12.168-0.927-17.855-1.777zm-36.124-10.712c10.339-2.011 56.119 8.647 57.119 8.772 2.815 0.434 5.415 1.495 8.261 2.251 0 0-65.379-11.023-65.38-11.023zm44.53-1.958c-0.072-0.911-0.086-1.205-0.12-1.873-2.108-0.225-1.193 0.276-12.282-3.937 0.405-0.186 1.112-0.504 1.365-0.619 5.105 1.701 11.572 1.968 18.197 6.502l1e-3 -1e-3s10.404 4.726 21.629 10.87c-2.075-0.071-27.788-10.523-28.79-10.942zm15.648-45.72c24.001 7.83 63.352 31.536 64.685 32.139 0.074-0.072 1.011-1.024 1.105-1.118 13.082 3.946 11.607-0.494 21.902 8.142-5.632-0.874-18.306-5.35-20.514-6.554-7.092 1.289-23.846-4.914-24.846-5.162l-0.03 0.057c1.006 0.902 2.172 1.707 3.563 2.458-1.173 0.167-2.355 0.363-3.462 0.549-29.166-22.594-42.403-30.511-42.403-30.511zm69.14 46.38c-0.323 0.087-1.077 0.283-1.389 0.367-9.966-2.193-13.66-5.198-17.029-8.274 1.52-0.086 2.915-0.15 4.251-0.196-0.943 0.486-1.452 0.755-2.092 1.096 13.534 0.911 6.319 0.629 16.259 7.007zm-10.363-10.053c-2.245-0.826-4.146-2.495-6.258-3.635 3.078-0.385 16.062 1.821 21.516 5.113-5.258-1e-3 -10.135-1.639-15.258-1.478zm-15.69-5.29c8.258 1.287 5.875 0.539 12.607 5.394-2.22 0.114-4.324 0.395-6.259 0.833-2.631-2.48-2.226-2.426-6.348-6.227zm22.906 28.457c-2.8-0.223-4.537-0.103-13.968-7.743-5.861-5.277-9.705-5.784-9.954-8.401 3.541 1.808 20.472 11.448 23.922 16.144zm0.672 4.82c-3.935 0.601-7.606-1.467-10.353-4.295 4.295-1.043 8.156 1.52 10.353 4.295zm-81.51-39.993c16.176 0.457 44.347 14.119 45.347 14.406 2.015 1.445 4.144 2.78 6.332 4.13-3.037 0.067-6.141 0.162-8.976-0.961 0 0-42.701-17.573-42.703-17.575zm56.774 37.729c-1.64-0.445-3.516-0.914-5.654-1.435 0.507-0.703 0.621-0.865 1.155-1.595-1.442-0.177-2.854-0.294-4.478-0.325-1.654-1.138-17.404-12.037-20.142-13.879 26.601-2.14 19.864 2.356 33.367 6.757l0.033-0.056c-3.474-3.146-7.902-5.022-12.196-6.943 4.395-2.155 12.498 3.42 14.101 7.426 0.347-0.209 0.84-0.496 1.243-0.719 2.57 3.671 3.313 2.134 10.571 7.551-8.718 1.161-10.25-3.983-32.303-12.902l-0.031 0.058c4.014 2.732 23.521 12.668 23.735 12.867-1.809-0.042-3.516-0.754-5.096-1.635 0.108 0.403 0.329 1.227 0.441 1.629-5.271 0.867-9.827-2.528-14.795-3.601l-0.023 0.061c0.639 0.383 9.546 4.166 9.546 4.166 4.06 0.113 8.156 0.523 12.218 0.643 2.069 0.669 3.739 2.112 5.27 3.543-1.312-0.018-2.586-0.281-3.788-0.786-0.079-0.083-0.547-0.588-0.596-0.638-3.961 1.251-8.346-1.255-12.578-0.187zm30.233 12.842c-7.776-3.348-15.678-3.724-26.077-7.826-0.211-0.385-0.426-0.796-0.655-1.254 13.583 0.092 3.866 1.043 18.743 2.699l-3e-3 4e-3c0.029 1e-3 0.057 2e-3 0.078 4e-3 1.801 0.069 3.387 0.97 4.609 2.317l1e-3 -5e-3c1.468 1.449 2.883 2.674 4.324 3.738-0.314 0.099-0.726 0.233-1.02 0.323zm-9.153-35.223c20.212-0.415 14.48 1.093 22.522 5.946-0.011 0.034-0.499 1.587-0.509 1.616 1.36 0.952 3.507 2.709 4.883 4.241-13.362-2.355-11.965-4.726-16.599-7.023 2.568 3.799 1.96 2.384 2.556 4.012-4.677-2.955 2.507 1.652-12.853-8.792zm35.645 25.666c-2.767-0.698-3.156-0.854-4.305-1.252-1-0.32-1.973-0.675-2.992-0.98-1.855-3.767-6.232-5.224-8.554-8.622 1.012 0.534 17.07 8.634 19 8.655-5.465-4.723-12.499-6.224-18.428-9.977-0.417-0.712-0.842-1.534-1.226-2.272 3.224 0.793 6.464 1.791 9.741 2.498v2e-3c5.455 1.023 8.39 6.048 12.084 9.673-0.504 0.087-1.844 0.306-2.272 0.382 2.501 2.153 3.589 1.896 6.855 4.515-1.128 1.977-1.613-0.531-9.903-2.622zm7.997-1.198l-0.016-0.022-3e-3 4e-3c-2.443-2.899-5.221-5.441-7.741-8.297 6.115 1.022 5.529 1.17 10.529 7.57-0.941 0.252-1.862 0.498-2.769 0.745zm17.131 12.652c-0.912-0.827-1.493-1.347-2.221-2.006-0.469-2.358-9.741-16.516-12.769-19.093-0.055 0.15-0.56 1.581-0.618 1.747-3.046-4.148-6.985-7.994-12.044-11.756l-0.045 0.048c3.08 3.552 6.842 6.507 9.719 10.3-0.975-0.361-1.923-0.768-2.818-1.217-1.375-0.053-3.497-0.048-5.518-0.432-3.554-3.033-16.304-13.626-16.304-13.626 4.819 0.839 9.876 0.818 13.69 4.208 4.481 0.373 0.64-2.739 11.252 8.867 0.424-0.174 0.955-0.38 1.383-0.554 0.968 0.648 1.961 1.303 2.953 1.945 0.026 0.619 0.087 1.449 0.1 1.555 0.43 0.277 1.645 1.042 2.033 1.285-0.01 0.36-0.035 0.911-0.051 1.252 0.377 0.189 1.156 0.578 1.533 0.763 3.723 4.02 5.85 9.27 9.039 13.671 3e-3 0.023 0.243 1.735 0.247 1.754 0.162 0.174 0.582 0.614 0.705 0.747-0.065 0.143-0.186 0.387-0.266 0.542zm286.6 479.91c-1.309-0.822-0.693-0.449-1.589-1.032-7.272 0.331-12.8-5.809-19.655-7.239 11.121 0.757 14.602 7.997 26.036 4.426 1 0.523 0.467 0.175 4.487 3.167-3.052 0.552-6.201 0.351-9.279 0.678z"/>
 <path d="m263.94 267.58c-2.221 1.505-5.038 3.452-7.684 5.365 2.704-1.87 5.299-3.685 7.684-5.365z"/>
 <path d="m321.13 415.35c-1.848 1.755-4.997 2.684-5.531 5.45 2.865-0.964 4.851-3.09 5.586-5.416l-0.055-0.034z"/>
 <path d="m174.1 443.95c-2.833-3.606-51.813-17.089-65.898-18.302-19.283-0.81-45.326 2.452-48.213 5.471 1.751 0 3.435-0.169 5.115-0.573 56.588-12.577 82.234 10.543 109 13.404z"/>
 <path d="m259.35 510.94c1.943 1.098 3.844 1.889 5.992 2.372-1.167-1.83-3.169-2.703-5.27-3.31-0.257 0.34-0.449 0.586-0.722 0.938z"/>
 <path d="m273.99 513.67c0.346-1.114-1.396-2.232-2.359-1.714-0.295 1.069 1.397 2.16 2.359 1.714z"/>
 <path d="m977.46 610.65c1 0.733 1.996 1.719 3.315 2.19 1-0.111 4.696-0.648 7.104-1.11l2e-3 -0.065c-0.568-0.138-9.958-1.524-10.421-1.015z"/>
 <path d="m257.2 730.67c-1.378 1.676-2.922 3.125-3.675 5.196 2.443-0.826 7.508-7.201 8.357-9.616-2.112 0.931-3.246 2.71-4.682 4.42z"/>
 <path d="m31.957 1553.4c2.118-1.938 3.747-4.229 4.876-6.64-3.07 0.688-6.958 3.421-4.876 6.64z"/>
</svg>
